<svg xmlns="http://www.w3.org/2000/svg" viewBox="0 0 760 750" role="img">
<title>동일 축척 도시 외곽선 비교</title>
<desc>서울, 부산, 인천, 대구, 울산, 수원, 전주, 창원의 실제 행정경계를 같은 원본 좌표계와 같은 축척으로 비교합니다.</desc>
<text class="wa-outline__scale-note" x="40" y="22">동일 축척</text>
<g><path class="wa-outline__shape" style="fill:#8E1F2F;fill-opacity:0.12;stroke:#8E1F2F" fill-rule="evenodd" clip-rule="evenodd" d="M153.50,98.51 L155.31,99.62 L159.03,100.99 L164.75,99.69 L167.44,102.37 L170.46,113.51 L171.53,120.19 L171.02,122.57 L169.83,125.62 L168.74,126.43 L168.32,127.51 L168.29,130.94 L168.99,132.02 L171.27,131.33 L175.96,129.27 L180.39,126.85 L181.78,126.61 L183.18,131.01 L183.31,134.36 L179.70,134.70 L178.01,137.12 L175.45,142.81 L175.60,143.83 L176.41,144.33 L178.42,144.67 L178.66,144.36 L179.33,145.05 L178.63,147.60 L176.74,149.58 L162.36,161.07 L159.14,161.58 L157.07,159.37 L154.35,154.74 L150.39,153.28 L149.00,153.19 L144.87,155.48 L142.96,157.35 L142.97,158.21 L142.70,158.74 L141.49,159.08 L132.43,160.24 L131.73,160.09 L128.61,154.96 L125.97,148.29 L120.87,150.80 L118.19,150.11 L116.34,149.31 L116.38,144.94 L118.05,138.60 L118.01,138.06 L116.95,136.05 L116.13,135.36 L114.20,134.67 L113.18,134.86 L112.70,135.34 L107.61,133.52 L106.64,132.14 L111.75,125.86 L111.71,125.18 L112.56,121.61 L113.42,120.45 L118.01,124.52 L122.76,127.76 L125.89,126.79 L131.26,124.09 L131.67,122.87 L132.32,117.17 L133.92,111.41 L139.96,108.21 L141.91,109.59 L143.03,114.12 L146.98,110.91 L148.72,104.52 L151.80,99.44 L152.69,98.41 L153.50,98.51 Z"/><text class="wa-outline__label" x="145" y="239">서울</text><text class="wa-outline__area" x="145" y="259">617 km²</text></g>
<g><path class="wa-outline__shape" style="fill:#D71920;fill-opacity:0.12;stroke:#D71920" fill-rule="evenodd" clip-rule="evenodd" d="M372.19,152.59 L372.62,151.68 L378.05,149.39 L380.91,153.39 L384.27,159.54 L381.74,161.09 L373.72,154.98 L372.70,153.96 L372.19,152.59 Z M372.62,151.68 L372.07,151.95 L372.19,152.59 L369.98,157.19 L370.26,157.54 L370.49,159.34 L369.34,161.08 L368.49,161.55 L367.26,157.26 L366.96,154.99 L363.32,159.93 L361.20,164.33 L360.10,165.43 L358.21,161.61 L356.86,155.64 L352.64,156.17 L344.14,155.70 L335.24,154.78 L334.86,154.40 L337.76,162.06 L338.03,164.39 L336.24,172.90 L335.56,174.82 L334.09,176.54 L332.58,175.42 L332.11,173.24 L332.87,173.03 L333.56,171.02 L328.53,163.23 L330.97,158.41 L334.37,157.68 L334.35,156.22 L330.38,156.28 L333.61,153.38 L334.43,153.98 L332.04,151.86 L334.73,150.62 L336.01,149.66 L336.30,148.90 L336.25,147.98 L335.22,145.49 L334.62,144.69 L330.94,143.55 L329.46,142.07 L326.98,138.83 L326.75,137.93 L326.91,137.61 L327.38,137.50 L339.26,135.22 L340.71,135.31 L341.17,127.48 L342.78,125.50 L344.11,124.47 L348.16,123.67 L349.90,123.79 L360.66,121.23 L362.66,120.65 L364.56,119.63 L365.41,118.68 L367.75,112.81 L375.46,107.14 L379.52,106.29 L386.68,101.44 L390.72,92.08 L398.97,91.86 L401.87,89.45 L402.82,88.39 L403.19,83.46 L405.29,85.08 L406.51,85.45 L409.00,84.92 L409.88,84.46 L412.58,84.06 L415.51,84.17 L418.37,88.33 L423.05,96.50 L423.25,97.71 L422.03,99.18 L420.57,99.28 L419.68,98.85 L414.85,104.16 L413.34,112.78 L413.66,115.96 L408.37,129.92 L402.80,136.09 L400.42,137.37 L399.55,137.33 L398.13,136.43 L397.22,136.45 L389.07,137.64 L388.35,138.15 L387.81,139.15 L387.87,141.27 L388.99,142.33 L390.55,146.01 L390.39,147.72 L389.68,150.40 L386.11,152.15 L385.07,152.34 L378.53,148.29 L379.57,146.86 L379.91,145.25 L378.32,144.12 L376.08,145.79 L372.76,151.39 L372.62,151.68 Z"/><text class="wa-outline__label" x="375" y="239">부산</text><text class="wa-outline__area" x="375" y="259">799 km²</text></g>
<g><path class="wa-outline__shape" style="fill:#2CA6A4;fill-opacity:0.12;stroke:#2CA6A4" fill-rule="evenodd" clip-rule="evenodd" d="M679.23,213.64 L679.55,213.76 L680.56,212.55 L680.96,212.57 L687.88,217.16 L687.87,217.60 L683.84,221.13 L678.85,222.44 L677.81,221.84 L673.68,218.31 L674.08,215.53 L676.14,208.38 L676.64,207.35 L677.98,211.15 L679.19,213.62 L679.23,213.64 Z M749.23,210.68 L748.29,211.79 L747.05,211.73 L745.38,213.48 L746.47,215.44 L745.31,216.06 L742.06,219.79 L737.72,218.11 L737.04,217.45 L736.53,210.98 L738.22,208.48 L743.69,205.89 L747.01,206.46 L748.67,208.58 L749.23,210.68 Z M762.31,152.91 L764.51,155.40 L765.27,158.65 L762.15,160.99 L755.63,162.27 L751.40,164.03 L748.96,166.39 L747.47,168.86 L739.55,174.26 L735.32,173.91 L735.02,172.43 L734.11,170.81 L730.86,168.35 L726.52,168.23 L725.92,165.85 L724.30,165.19 L723.73,164.29 L723.59,163.23 L724.36,161.94 L734.48,157.12 L744.39,156.30 L749.64,153.02 L749.41,152.91 L749.76,150.06 L750.25,148.95 L753.31,148.25 L762.30,152.89 L762.31,152.91 Z M792.04,135.25 L796.45,137.40 L799.61,136.38 L803.34,136.79 L804.56,137.72 L799.45,144.01 L797.33,152.66 L795.65,153.00 L794.84,154.47 L794.93,159.53 L799.59,163.08 L801.31,162.98 L801.73,163.89 L801.46,166.50 L800.07,172.78 L799.77,173.32 L797.02,175.60 L795.08,179.40 L791.81,182.76 L782.23,190.64 L775.87,192.87 L772.60,192.90 L767.46,192.49 L765.25,191.58 L765.26,189.81 L777.44,189.88 L771.95,184.57 L767.76,175.59 L774.35,173.23 L774.26,172.53 L771.19,167.15 L770.65,166.87 L768.79,170.54 L767.54,170.53 L767.33,168.07 L767.75,163.03 L768.82,160.50 L769.87,159.46 L768.52,144.62 L766.82,140.11 L764.30,135.81 L773.70,132.61 L779.27,124.48 L781.35,124.96 L782.35,125.46 L787.06,129.20 L788.38,130.62 L788.50,131.56 L792.04,135.25 Z M604.94,116.20 L602.30,118.73 L600.73,118.51 L600.52,116.72 L600.66,112.44 L605.05,112.17 L606.05,112.38 L606.44,112.54 L606.68,113.85 L604.94,116.20 Z M727.01,117.93 L722.07,122.20 L720.97,121.81 L718.97,120.08 L718.48,118.84 L719.06,118.16 L719.26,116.39 L717.48,113.64 L716.72,112.91 L711.99,110.48 L709.87,107.03 L712.19,99.54 L712.83,99.07 L717.41,97.37 L718.15,97.42 L717.31,104.08 L717.50,106.27 L718.31,107.35 L721.27,109.77 L722.92,110.38 L726.38,111.08 L727.89,112.55 L728.53,113.88 L728.06,116.02 L727.42,117.49 L727.01,117.93 Z M433.40,85.10 L433.91,85.22 L433.22,86.52 L433.26,87.98 L432.39,88.33 L430.26,87.30 L428.03,88.16 L427.56,89.12 L426.41,89.25 L426.00,89.79 L425.48,89.03 L426.69,88.09 L426.89,86.94 L428.25,86.48 L428.33,85.86 L427.91,85.58 L428.10,85.18 L429.17,85.89 L430.02,85.45 L431.94,85.44 L433.27,85.08 L433.40,85.10 Z M713.30,85.70 L716.80,85.86 L718.35,85.33 L718.80,84.45 L719.43,85.02 L720.26,86.45 L720.48,87.09 L719.91,88.35 L717.03,92.42 L712.85,94.45 L701.87,97.45 L700.76,96.87 L697.30,93.40 L700.29,84.95 L703.51,82.16 L707.91,82.10 L709.19,83.15 L713.30,85.70 Z M750.12,89.61 L750.96,89.83 L752.28,90.83 L755.16,98.49 L753.44,103.91 L753.16,106.26 L754.74,110.40 L754.14,114.21 L754.79,120.69 L756.17,124.35 L757.63,127.27 L756.48,129.89 L753.31,132.93 L743.06,134.70 L732.73,134.11 L727.50,129.90 L727.39,125.41 L727.75,124.31 L730.86,123.44 L731.86,123.50 L733.07,122.58 L734.18,120.24 L733.29,115.92 L730.84,110.64 L729.78,109.62 L725.87,108.62 L725.18,108.68 L723.63,105.59 L723.99,89.48 L724.72,87.91 L733.69,81.43 L738.26,79.55 L742.72,84.51 L748.88,89.13 L750.12,89.61 Z M422.59,78.21 L421.33,78.94 L417.96,78.42 L415.02,75.55 L415.08,74.76 L421.51,68.67 L422.07,68.60 L422.32,68.84 L424.60,75.26 L424.17,76.91 L422.66,78.16 L422.59,78.21 Z M427.64,39.66 L427.97,42.67 L421.26,51.38 L418.24,51.52 L411.82,51.28 L410.55,51.03 L405.77,41.52 L405.44,40.21 L406.81,38.03 L410.69,40.63 L411.08,40.67 L422.04,37.60 L425.42,37.86 L427.48,38.99 L427.64,39.66 Z"/><g transform="translate(632,53)"><rect class="wa-outline__inset-frame" x="0" y="0" width="70" height="56" rx="4"/><path class="wa-outline__inset-shape" d="M40.34,11.55 L43.43,13.06 L45.65,12.35 L48.27,12.63 L49.12,13.29 L45.54,17.70 L44.05,23.77 L43.84,23.75 L42.87,24.01 L42.30,25.04 L42.37,28.59 L45.63,31.08 L46.52,31.14 L46.84,31.01 L46.97,31.13 L47.14,31.65 L47.19,32.05 L46.95,33.48 L45.97,37.89 L45.76,38.26 L43.83,39.86 L43.15,41.38 L42.47,42.53 L40.17,44.89 L39.53,45.50 L33.46,50.42 L28.99,51.98 L26.70,52.00 L23.09,51.72 L21.55,51.07 L21.55,49.83 L30.10,49.88 L26.25,46.16 L23.30,39.85 L27.92,38.20 L27.87,37.71 L25.71,33.93 L25.33,33.74 L24.03,36.31 L23.15,36.31 L23.00,35.58 L23.00,34.58 L23.30,31.05 L23.70,29.92 L24.05,29.27 L24.79,28.54 L23.83,18.13 L22.65,14.97 L20.88,11.95 L22.87,11.34 L27.47,9.70 L31.38,4.00 L32.84,4.34 L33.54,4.68 L36.84,7.31 L37.77,8.30 L37.85,8.97 L40.34,11.55 Z" fill-rule="evenodd" clip-rule="evenodd"/><text class="wa-outline__inset-label" x="35" y="51">도심권</text></g><text class="wa-outline__label" x="605" y="239">인천</text><text class="wa-outline__area" x="605" y="259">1,026 km²</text></g>
<g><path class="wa-outline__shape" style="fill:#008837;fill-opacity:0.12;stroke:#008837" fill-rule="evenodd" clip-rule="evenodd" d="M112.66,281.72 L116.01,285.09 L118.12,286.15 L120.33,287.05 L122.36,287.00 L125.65,287.83 L144.30,295.22 L146.63,296.47 L147.48,297.38 L146.92,304.22 L148.87,306.89 L151.16,305.71 L155.26,307.17 L158.43,308.76 L158.07,310.05 L159.66,310.74 L160.37,310.85 L169.62,309.74 L172.80,311.54 L176.48,312.46 L176.86,312.43 L177.79,310.79 L178.20,309.56 L178.03,309.33 L178.94,307.95 L182.42,306.02 L185.63,306.59 L190.83,308.93 L192.64,310.36 L194.62,314.50 L195.50,317.55 L195.52,319.34 L194.85,323.13 L183.92,332.87 L179.96,335.86 L178.39,336.53 L176.26,336.50 L171.59,333.46 L167.32,333.01 L165.37,334.91 L161.70,339.36 L160.54,342.71 L158.19,352.58 L158.70,353.74 L159.49,354.20 L162.30,354.77 L163.57,355.30 L164.37,355.96 L165.77,357.94 L170.49,378.36 L171.19,382.63 L171.11,385.78 L170.97,387.59 L169.29,389.59 L167.02,391.05 L166.35,391.03 L161.94,396.15 L156.60,405.39 L156.53,406.94 L159.18,413.24 L158.58,418.45 L156.97,421.20 L149.51,424.63 L145.05,425.59 L143.92,423.96 L143.66,421.11 L144.07,419.30 L143.85,417.78 L143.58,417.41 L137.56,417.44 L134.27,418.59 L127.71,423.54 L128.37,424.86 L128.49,427.26 L128.15,430.41 L125.95,431.26 L123.97,432.80 L124.16,438.25 L119.22,441.57 L110.87,442.68 L106.77,445.19 L100.50,448.35 L99.64,448.30 L98.67,447.93 L98.37,447.52 L101.61,445.71 L104.00,442.27 L104.13,441.57 L103.75,439.30 L102.45,437.68 L98.94,434.87 L96.57,432.43 L95.59,430.91 L94.84,428.90 L94.50,427.39 L94.53,425.87 L95.19,425.10 L95.86,424.78 L105.94,427.66 L107.82,427.31 L109.68,425.53 L110.02,425.03 L110.17,423.25 L109.57,420.75 L106.74,418.45 L101.87,415.56 L100.38,413.28 L100.38,412.86 L104.94,403.78 L107.32,401.41 L111.10,401.39 L111.13,402.14 L116.66,402.11 L117.31,401.84 L118.95,399.87 L118.99,399.30 L118.64,396.51 L116.26,394.59 L112.72,392.73 L106.76,391.82 L104.29,391.60 L100.77,391.77 L100.20,391.42 L100.30,388.46 L103.01,380.51 L107.83,373.98 L113.29,370.42 L116.74,371.73 L117.49,372.40 L117.07,376.34 L116.85,377.03 L116.10,377.86 L115.85,378.89 L115.94,380.32 L117.37,381.64 L121.35,382.81 L123.11,381.07 L127.15,374.89 L128.52,371.35 L128.28,367.38 L130.53,364.28 L138.76,361.82 L141.23,359.88 L145.13,355.17 L146.51,341.47 L146.24,339.20 L145.55,338.41 L145.10,338.32 L139.96,339.67 L139.75,340.75 L139.93,341.54 L139.35,342.48 L135.20,343.11 L134.56,342.94 L133.58,340.95 L133.84,339.22 L132.80,329.41 L130.15,321.55 L130.43,319.13 L131.19,318.98 L132.01,316.13 L128.17,312.07 L118.53,304.00 L116.68,303.49 L112.54,305.49 L109.56,305.56 L105.77,300.52 L104.91,291.97 L106.10,288.22 L111.94,281.66 L112.36,281.65 L112.66,281.72 Z"/><text class="wa-outline__label" x="145" y="474">대구</text><text class="wa-outline__area" x="145" y="494">1,500 km²</text></g>
<g><path class="wa-outline__shape" style="fill:#0072BC;fill-opacity:0.12;stroke:#0072BC" fill-rule="evenodd" clip-rule="evenodd" d="M359.63,319.62 L361.41,320.94 L368.88,321.24 L372.73,321.78 L380.10,324.53 L381.22,326.72 L380.76,331.09 L379.85,332.46 L380.01,333.84 L380.97,335.17 L387.77,337.33 L393.66,333.96 L395.52,331.53 L397.62,329.58 L398.86,329.10 L400.24,329.26 L415.18,334.51 L416.71,335.32 L415.20,336.81 L415.15,339.77 L416.93,343.69 L418.40,343.89 L419.33,345.50 L419.81,350.21 L419.10,350.75 L418.77,350.60 L417.61,351.97 L417.64,353.60 L418.32,355.12 L418.69,357.64 L416.97,364.23 L416.18,368.94 L416.52,372.08 L414.18,374.80 L410.19,376.97 L409.28,376.86 L408.90,375.67 L408.86,373.72 L409.61,371.95 L405.61,364.23 L403.41,361.72 L402.68,365.06 L403.19,366.45 L404.50,366.60 L405.25,370.29 L405.35,373.97 L404.96,377.82 L403.92,379.53 L402.27,381.11 L400.03,380.20 L396.73,375.64 L398.74,382.57 L399.79,384.85 L401.65,384.08 L401.38,393.29 L398.18,404.39 L393.24,408.08 L391.27,410.38 L390.72,410.08 L386.04,401.91 L383.18,397.75 L380.25,397.64 L377.55,398.04 L376.67,398.50 L374.17,399.03 L372.96,398.66 L370.85,397.05 L374.13,392.55 L374.12,392.01 L372.67,389.78 L368.93,385.79 L366.36,386.84 L363.90,386.75 L359.13,383.41 L349.52,371.85 L342.47,368.37 L334.36,366.33 L331.26,365.24 L330.19,359.83 L331.03,356.26 L335.65,352.30 L336.36,350.56 L336.33,345.44 L335.64,344.95 L332.47,343.92 L333.05,343.21 L344.50,334.08 L344.44,331.92 L344.92,329.36 L346.86,326.20 L348.83,324.59 L357.53,320.30 L359.63,319.62 Z"/><text class="wa-outline__label" x="375" y="474">울산</text><text class="wa-outline__area" x="375" y="494">1,072 km²</text></g>
<g><path class="wa-outline__shape" style="fill:#6f7473;fill-opacity:0.12;stroke:#6f7473" fill-rule="evenodd" clip-rule="evenodd" d="M608.18,351.00 L609.70,351.89 L609.35,353.68 L610.55,355.64 L610.36,356.14 L610.80,356.94 L610.64,358.08 L609.48,359.96 L609.57,362.69 L609.99,363.54 L609.55,363.90 L608.41,364.18 L608.06,364.71 L607.25,365.15 L606.18,364.69 L605.22,365.52 L604.51,365.31 L603.60,364.55 L601.94,365.20 L601.21,364.50 L600.99,364.76 L600.65,364.22 L599.29,364.83 L599.48,365.23 L598.92,365.46 L597.86,365.22 L597.57,363.45 L596.25,361.58 L596.70,361.31 L597.26,360.32 L597.43,358.01 L597.79,357.47 L597.35,356.59 L598.23,354.79 L598.83,355.34 L600.37,355.97 L600.78,355.49 L601.62,355.18 L601.63,354.66 L601.98,354.29 L603.66,353.24 L605.18,353.08 L606.18,350.75 L607.20,350.38 L608.01,350.93 L608.18,351.00 Z M592.85,362.02 L594.43,362.01 L596.25,361.58 L597.57,363.45 L597.86,365.22 L598.79,365.47 L599.48,365.23 L600.01,365.92 L601.05,366.14 L600.90,367.16 L601.25,367.89 L602.21,367.39 L603.12,369.18 L603.18,369.89 L603.66,370.53 L604.74,370.51 L605.26,369.64 L605.92,370.05 L605.99,370.50 L607.27,370.33 L609.32,371.05 L609.07,371.85 L610.21,372.24 L611.22,373.53 L610.66,374.44 L610.85,375.08 L610.23,376.02 L610.31,376.70 L609.81,376.86 L608.93,377.97 L607.71,378.19 L607.70,379.31 L607.44,379.62 L607.23,379.40 L604.96,379.04 L604.02,378.30 L603.60,379.15 L603.17,379.32 L602.85,378.51 L601.46,377.94 L601.47,377.51 L601.13,377.35 L600.65,377.91 L599.90,377.74 L599.51,378.24 L598.39,378.61 L597.94,378.46 L597.47,377.20 L595.57,375.98 L595.65,375.31 L595.32,374.42 L594.72,373.96 L594.21,372.35 L593.60,371.94 L591.57,372.06 L590.93,371.15 L590.62,371.09 L590.32,369.13 L589.96,368.54 L590.26,367.52 L590.03,366.98 L590.25,365.90 L591.11,364.04 L592.33,363.16 L592.28,362.88 L591.31,362.32 L591.04,361.55 L591.36,361.32 L592.42,361.74 L592.85,362.02 Z M611.08,364.29 L611.32,364.88 L610.71,365.50 L610.61,366.00 L611.40,365.44 L611.19,366.19 L611.57,367.91 L611.89,368.17 L611.00,367.85 L610.34,367.98 L610.33,368.88 L609.58,369.82 L610.94,370.25 L610.21,372.24 L609.07,371.85 L609.32,371.05 L607.27,370.33 L605.99,370.50 L605.92,370.05 L605.26,369.64 L604.74,370.51 L603.66,370.53 L603.18,369.89 L603.12,369.18 L602.21,367.39 L601.25,367.89 L600.90,367.16 L601.06,366.15 L600.01,365.92 L599.29,364.83 L600.44,364.28 L600.65,364.22 L600.99,364.76 L601.21,364.50 L601.94,365.20 L603.60,364.55 L604.51,365.31 L605.22,365.52 L606.12,364.70 L607.25,365.15 L608.06,364.71 L608.41,364.18 L609.77,363.73 L610.51,363.81 L611.01,364.19 L611.08,364.29 Z M612.71,358.54 L614.15,358.61 L614.68,359.68 L614.23,361.10 L614.73,361.39 L614.61,362.99 L618.10,363.79 L618.78,362.77 L620.04,362.64 L619.73,364.33 L619.97,365.27 L616.63,366.71 L615.34,369.17 L616.49,369.94 L617.73,370.16 L619.13,369.19 L619.38,370.36 L618.36,371.50 L618.40,371.83 L618.89,371.76 L619.08,372.30 L618.60,372.81 L618.53,374.08 L618.22,374.39 L616.32,374.66 L615.52,375.24 L615.78,376.05 L615.45,376.06 L614.19,377.43 L613.14,378.10 L613.31,377.61 L612.93,377.39 L612.04,377.72 L611.50,376.81 L611.55,376.40 L610.21,376.23 L610.85,375.08 L610.66,374.44 L611.22,373.53 L610.21,372.24 L610.94,370.25 L609.58,369.82 L610.33,368.88 L610.34,367.98 L611.00,367.85 L611.89,368.17 L611.57,367.91 L611.19,366.19 L611.40,365.44 L610.61,366.00 L610.71,365.50 L611.32,364.88 L611.08,364.29 L610.51,363.81 L609.77,363.73 L609.99,363.54 L609.57,362.69 L609.48,359.96 L610.86,357.34 L612.55,358.47 L612.71,358.54 Z"/><text class="wa-outline__label" x="605" y="474">수원</text><text class="wa-outline__area" x="605" y="494">121 km²</text></g>
<g><path class="wa-outline__shape" style="fill:#6f7473;fill-opacity:0.12;stroke:#6f7473" fill-rule="evenodd" clip-rule="evenodd" d="M143.92,594.66 L144.51,594.92 L145.38,594.80 L147.02,596.40 L147.36,597.11 L146.96,597.74 L147.05,598.84 L148.15,599.63 L148.56,599.39 L148.63,598.94 L147.92,598.14 L148.18,597.87 L150.61,597.01 L150.70,596.60 L152.42,597.15 L152.50,596.93 L155.00,599.62 L155.49,600.96 L157.02,602.53 L158.38,602.45 L159.12,601.47 L160.74,601.28 L161.65,601.74 L162.13,602.40 L163.31,602.61 L163.95,603.47 L163.56,604.14 L163.09,604.34 L162.86,605.16 L160.85,606.86 L161.08,607.16 L160.51,609.56 L159.83,609.70 L158.26,608.52 L156.73,609.45 L155.27,608.22 L153.88,607.89 L153.55,607.54 L152.06,608.48 L151.75,609.25 L151.20,609.61 L151.34,611.22 L150.61,612.00 L150.62,613.05 L148.78,612.70 L147.69,613.91 L146.69,614.21 L145.95,614.94 L145.30,614.86 L144.86,615.40 L142.36,614.64 L141.06,616.42 L141.05,618.10 L140.26,618.34 L139.05,620.16 L138.65,619.96 L137.82,618.35 L136.40,617.33 L136.16,615.57 L135.15,614.90 L133.85,614.63 L132.54,613.88 L133.12,612.00 L135.15,611.28 L135.31,611.12 L135.14,610.65 L136.90,609.70 L137.05,609.27 L136.41,607.65 L135.40,606.83 L135.35,603.17 L135.96,601.87 L135.80,600.22 L136.14,600.13 L135.43,598.52 L135.85,597.91 L136.72,597.77 L138.81,596.47 L139.38,595.96 L139.59,595.16 L140.09,594.82 L142.27,594.76 L142.64,594.42 L142.79,593.66 L143.52,594.46 L143.92,594.66 Z M146.01,579.84 L146.73,580.23 L148.97,580.12 L149.50,580.96 L150.51,581.52 L150.77,582.65 L151.39,583.63 L151.64,585.41 L152.33,585.92 L153.38,587.38 L154.64,590.19 L154.84,591.31 L157.90,591.19 L158.44,590.90 L158.92,590.02 L159.68,589.65 L160.14,589.78 L160.48,591.35 L160.98,591.55 L161.71,593.34 L162.24,593.55 L162.68,594.29 L162.64,596.13 L162.23,596.99 L162.70,597.83 L163.71,598.86 L164.46,599.15 L165.84,598.61 L167.19,598.66 L167.13,598.93 L166.59,599.18 L166.04,601.78 L165.66,601.85 L163.95,603.35 L163.31,602.61 L162.13,602.40 L161.65,601.74 L160.74,601.28 L159.12,601.47 L158.38,602.45 L157.02,602.53 L155.49,600.96 L155.00,599.62 L152.50,596.93 L152.42,597.15 L150.70,596.60 L150.61,597.01 L148.18,597.87 L147.92,598.14 L148.63,598.94 L148.56,599.39 L148.15,599.63 L147.05,598.84 L146.96,597.74 L147.36,597.11 L146.65,595.98 L145.38,594.80 L144.51,594.92 L143.92,594.66 L142.79,593.66 L142.64,594.42 L142.27,594.76 L140.09,594.82 L139.59,595.16 L139.38,595.96 L138.81,596.47 L136.72,597.77 L133.99,597.76 L132.76,597.37 L132.87,595.99 L134.15,596.00 L134.17,594.48 L133.61,594.30 L132.47,591.51 L131.64,591.33 L129.53,591.95 L128.28,590.23 L128.48,589.38 L128.13,588.75 L128.24,588.10 L127.69,588.14 L126.32,589.60 L125.23,588.68 L124.37,588.32 L124.58,586.15 L122.78,584.11 L123.49,582.93 L123.33,582.03 L128.38,580.96 L130.84,580.87 L131.30,580.96 L132.31,582.21 L133.30,582.26 L134.16,581.72 L134.42,580.71 L134.77,580.46 L135.84,580.85 L138.27,581.07 L138.84,582.32 L139.53,582.44 L139.51,582.07 L141.98,581.69 L142.80,581.10 L144.14,580.97 L145.78,579.87 L146.01,579.84 Z"/><text class="wa-outline__label" x="145" y="709">전주</text><text class="wa-outline__area" x="145" y="729">205 km²</text></g>
<g><path class="wa-outline__shape" style="fill:#6f7473;fill-opacity:0.12;stroke:#6f7473" fill-rule="evenodd" clip-rule="evenodd" d="M381.66,566.19 L383.29,565.21 L384.75,564.69 L386.41,564.87 L388.48,564.06 L392.05,563.99 L394.75,565.45 L396.69,565.98 L397.48,566.48 L402.34,570.64 L404.20,570.62 L405.25,571.12 L406.30,571.22 L404.25,573.82 L404.02,573.77 L404.21,573.11 L403.68,572.66 L403.66,574.32 L402.17,574.50 L402.27,577.00 L401.62,577.83 L400.41,578.11 L398.42,576.87 L397.60,575.93 L396.80,576.58 L396.82,577.56 L396.41,578.34 L397.05,579.44 L396.01,579.81 L393.65,579.51 L392.79,580.03 L392.82,580.88 L394.76,582.43 L394.98,584.06 L395.39,584.96 L395.26,586.00 L396.53,588.86 L396.39,589.68 L397.07,591.76 L397.98,593.42 L398.12,594.86 L398.85,594.68 L399.39,595.63 L399.39,596.15 L397.75,596.82 L397.44,596.49 L396.68,596.50 L395.03,597.27 L394.34,597.10 L393.39,597.57 L392.91,596.85 L391.10,595.41 L388.67,594.45 L387.90,594.45 L385.13,595.54 L381.76,600.48 L380.79,601.16 L379.75,600.53 L379.20,600.58 L379.04,600.83 L377.78,600.04 L377.76,599.37 L378.25,598.79 L378.49,597.01 L377.88,596.18 L375.85,594.67 L375.95,593.04 L375.51,592.43 L374.73,591.56 L373.46,591.16 L372.59,590.35 L372.92,588.86 L372.77,588.59 L373.82,588.31 L373.39,587.24 L372.13,587.04 L371.84,585.09 L370.98,584.33 L370.20,582.10 L371.95,580.22 L371.16,579.18 L370.66,579.18 L370.00,578.54 L369.88,577.37 L369.38,576.49 L368.60,575.82 L369.22,575.07 L369.59,573.87 L368.54,572.68 L368.56,572.12 L368.10,571.32 L368.37,570.64 L367.49,570.02 L367.90,569.55 L367.86,569.02 L369.70,568.81 L369.78,567.96 L370.85,566.92 L370.24,565.50 L370.71,564.22 L370.66,563.48 L372.30,562.45 L373.84,560.94 L375.38,560.53 L376.97,562.37 L381.21,565.84 L381.66,566.19 Z M393.24,597.35 L393.39,597.57 L394.34,597.10 L395.03,597.27 L396.68,596.50 L397.44,596.49 L397.75,596.82 L399.25,596.28 L399.42,596.47 L399.13,597.17 L399.24,597.80 L398.53,599.09 L398.79,601.62 L399.85,603.33 L400.89,603.64 L402.67,603.56 L404.16,604.54 L404.16,606.14 L403.35,606.79 L402.99,608.18 L401.98,614.95 L400.95,614.76 L397.99,613.46 L396.94,612.63 L392.57,612.01 L391.96,611.47 L390.68,611.17 L388.88,609.53 L385.99,609.67 L384.52,610.56 L382.90,610.54 L379.34,614.78 L379.15,615.64 L377.58,616.53 L377.33,615.32 L377.72,613.91 L377.20,613.71 L376.66,614.37 L375.41,613.32 L375.79,612.57 L374.51,611.58 L374.25,611.09 L374.17,607.24 L373.56,606.34 L373.83,606.15 L373.57,605.38 L377.16,602.46 L378.84,602.55 L380.27,602.18 L381.82,600.71 L381.91,600.18 L385.13,595.54 L385.99,595.06 L387.79,594.48 L388.67,594.45 L391.10,595.41 L393.03,597.01 L393.24,597.35 Z M370.41,638.31 L370.18,637.85 L370.46,637.01 L371.08,636.84 L371.27,637.14 L370.70,638.21 L370.41,638.31 Z M383.06,636.64 L383.47,636.51 L383.52,636.81 L382.37,637.53 L381.93,637.23 L382.24,636.52 L383.00,636.13 L383.05,636.64 L383.06,636.64 Z M370.74,636.55 L370.32,636.32 L370.53,635.93 L370.88,636.24 L370.76,636.54 L370.74,636.55 Z M371.43,636.44 L371.00,636.40 L371.18,635.81 L371.59,636.27 L371.44,636.44 L371.43,636.44 Z M367.18,635.42 L368.50,636.16 L368.85,637.73 L369.95,638.87 L369.75,639.17 L368.83,639.47 L367.55,639.11 L366.60,638.16 L366.28,637.23 L365.06,636.27 L364.92,635.64 L367.17,635.41 L367.18,635.42 Z M356.25,635.59 L355.77,635.21 L356.05,634.82 L356.41,635.24 L356.30,635.57 L356.25,635.59 Z M368.24,634.72 L368.68,634.54 L368.97,634.69 L368.82,634.82 L367.41,634.92 L366.95,634.74 L367.44,634.47 L368.24,634.72 L368.24,634.72 Z M355.05,633.89 L354.61,633.61 L354.68,632.24 L355.90,632.96 L355.17,633.87 L355.05,633.89 Z M365.08,633.40 L364.88,632.76 L365.07,632.02 L365.64,631.73 L365.78,632.09 L365.33,632.76 L365.32,633.32 L365.08,633.40 L365.08,633.40 Z M349.48,631.00 L349.48,630.99 L349.60,630.88 L349.48,631.00 Z M355.60,631.09 L354.41,630.65 L354.84,630.04 L355.50,629.86 L355.80,630.55 L355.60,631.09 Z M359.42,629.34 L359.55,629.47 L359.10,629.84 L358.88,629.60 L359.39,629.34 L359.42,629.34 Z M360.79,629.30 L360.97,629.49 L360.36,629.99 L360.10,631.16 L359.62,629.48 L360.67,629.26 L360.79,629.30 Z M372.35,609.86 L372.55,609.95 L372.44,610.45 L371.57,610.22 L372.09,609.82 L372.35,609.86 Z M373.25,602.77 L373.25,602.77 L373.24,602.77 L373.25,602.77 Z M371.59,600.61 L371.53,600.59 L371.59,600.61 L371.59,600.61 Z M373.25,602.77 L372.97,602.86 L372.80,604.04 L371.05,605.55 L371.10,605.86 L371.31,605.61 L370.43,606.78 L370.16,606.66 L369.69,607.29 L370.23,607.47 L370.76,608.63 L370.69,609.61 L369.74,610.03 L369.38,609.53 L369.60,607.41 L368.94,608.29 L368.91,608.87 L370.04,611.06 L371.28,611.16 L371.82,611.57 L372.98,613.29 L372.41,613.64 L372.70,614.14 L373.52,614.42 L373.97,614.97 L373.88,615.40 L372.75,615.57 L373.98,616.09 L373.96,615.71 L374.10,616.37 L373.96,616.90 L373.18,617.25 L372.95,617.62 L373.99,617.56 L375.25,618.57 L373.34,621.33 L371.76,619.23 L371.07,619.73 L371.02,620.72 L370.48,620.85 L371.05,621.40 L372.43,622.03 L373.95,621.66 L374.65,620.83 L375.78,620.92 L375.56,622.72 L374.92,623.16 L374.00,623.14 L373.12,623.68 L373.43,624.17 L374.00,623.68 L375.69,623.90 L376.05,627.42 L376.32,627.88 L377.20,628.44 L377.50,629.00 L379.18,629.75 L378.85,630.07 L378.09,629.94 L378.16,630.27 L378.96,630.76 L380.02,630.59 L381.09,631.83 L381.20,632.16 L380.49,631.99 L379.04,632.68 L376.92,632.81 L376.37,633.83 L376.46,634.21 L376.94,634.54 L377.35,633.99 L378.03,634.02 L378.16,634.69 L377.37,635.07 L378.29,635.39 L378.76,635.36 L380.52,634.30 L382.65,634.89 L382.71,635.16 L382.43,635.63 L381.41,635.77 L380.75,636.43 L379.53,636.70 L379.19,637.02 L378.42,636.97 L377.62,637.42 L377.36,638.09 L376.25,638.43 L376.07,638.26 L373.95,638.43 L371.62,639.09 L370.79,638.88 L371.80,637.82 L371.80,637.51 L373.10,637.19 L373.99,636.12 L375.28,635.68 L375.33,635.35 L374.08,634.70 L373.45,634.66 L373.29,634.85 L373.55,635.33 L372.29,636.56 L372.11,636.02 L370.16,635.33 L369.81,635.94 L368.80,635.96 L368.54,635.40 L369.27,635.45 L369.48,635.20 L369.43,634.59 L368.87,633.86 L369.32,632.51 L370.07,632.43 L370.86,631.49 L372.27,631.26 L372.67,630.38 L371.49,630.56 L370.08,629.95 L366.39,629.18 L366.06,629.23 L366.10,629.83 L365.68,630.06 L365.49,628.84 L365.96,628.34 L364.72,628.11 L365.35,627.42 L365.84,627.48 L366.10,626.75 L365.10,625.97 L364.77,626.54 L364.16,626.89 L363.84,626.66 L363.80,626.04 L364.15,626.56 L364.59,626.15 L364.15,625.12 L364.61,624.27 L363.97,623.68 L363.19,624.78 L363.40,625.10 L362.67,626.01 L362.58,626.84 L361.96,627.46 L361.55,627.14 L360.63,627.30 L360.57,628.54 L360.24,628.97 L359.31,628.82 L359.25,628.57 L357.95,628.84 L356.67,628.00 L356.00,627.09 L354.45,626.66 L353.82,626.67 L354.30,627.18 L354.09,628.17 L353.69,628.47 L353.30,628.66 L353.26,628.01 L352.99,628.02 L352.65,628.69 L351.33,629.01 L350.79,628.82 L349.04,627.19 L347.62,627.64 L347.82,627.93 L346.85,629.02 L347.07,629.53 L348.33,630.53 L349.48,631.00 L350.41,631.98 L352.92,632.80 L352.96,633.56 L352.39,634.15 L351.95,634.22 L351.37,632.89 L350.88,632.83 L350.36,633.32 L350.22,634.64 L349.60,635.15 L348.00,634.61 L346.55,635.12 L345.40,635.04 L345.28,635.25 L345.59,635.34 L345.61,635.68 L345.32,636.33 L344.70,636.68 L344.03,638.46 L343.17,639.06 L342.59,638.62 L342.35,638.77 L343.06,635.35 L342.71,633.46 L343.24,632.56 L343.02,631.80 L342.30,631.38 L341.68,631.43 L341.10,630.65 L339.98,630.39 L337.83,630.92 L337.71,631.28 L338.09,631.99 L338.06,632.41 L337.81,632.51 L336.46,631.55 L336.07,630.73 L335.95,629.03 L335.20,628.05 L333.97,627.75 L332.50,626.19 L330.79,626.75 L330.38,626.50 L329.76,626.72 L328.60,626.13 L329.02,624.54 L328.62,623.35 L327.98,622.54 L328.06,622.06 L329.82,619.63 L330.83,619.28 L329.89,617.95 L330.57,616.72 L330.38,614.14 L331.11,612.13 L331.63,607.75 L331.44,606.98 L332.75,607.25 L333.18,606.68 L333.16,605.96 L333.84,605.23 L335.81,603.95 L337.80,604.49 L338.22,604.92 L339.02,606.97 L338.28,609.06 L338.79,610.31 L339.91,610.76 L340.63,611.61 L340.90,612.46 L343.47,613.80 L344.23,613.83 L344.86,613.56 L346.06,612.42 L346.30,610.01 L348.61,609.21 L350.10,608.04 L352.67,608.23 L353.80,609.70 L354.50,610.05 L356.24,609.88 L357.27,610.63 L357.95,610.37 L358.51,610.70 L359.09,610.43 L360.39,610.56 L361.83,609.21 L362.10,608.52 L364.45,607.41 L363.82,605.56 L364.02,604.17 L363.50,603.78 L363.46,603.14 L364.96,602.04 L366.35,602.51 L367.50,602.09 L368.13,601.39 L368.99,601.32 L371.14,601.85 L371.59,600.61 L372.09,600.61 L372.64,600.07 L373.51,600.83 L373.65,600.62 L373.75,601.84 L373.35,602.46 L373.25,602.77 Z M370.34,588.88 L371.18,589.31 L372.77,588.59 L372.92,588.86 L372.66,590.47 L373.46,591.16 L374.71,591.55 L375.51,592.43 L375.95,593.04 L375.85,594.67 L377.88,596.18 L378.49,597.01 L378.25,598.79 L377.76,599.37 L377.78,600.04 L379.04,600.83 L379.34,600.54 L380.25,600.67 L380.66,601.21 L378.81,602.27 L377.32,602.12 L375.96,602.71 L373.22,603.00 L373.75,601.84 L373.72,600.93 L373.65,600.62 L373.51,600.83 L372.64,600.07 L372.09,600.61 L371.59,600.61 L371.14,601.85 L368.99,601.32 L368.13,601.39 L367.50,602.09 L366.35,602.51 L364.96,602.04 L363.46,603.14 L363.50,603.78 L364.02,604.17 L363.82,605.56 L364.45,607.41 L362.10,608.52 L361.83,609.21 L360.69,610.38 L360.08,610.69 L359.09,610.43 L358.51,610.70 L357.95,610.37 L357.27,610.63 L356.24,609.88 L354.50,610.05 L353.80,609.70 L352.67,608.23 L353.83,606.00 L354.40,605.66 L354.74,604.83 L354.70,603.85 L353.61,602.72 L352.66,602.54 L352.55,601.66 L351.67,600.31 L351.88,599.76 L351.95,596.72 L351.68,595.99 L351.94,594.43 L352.51,593.13 L354.27,591.60 L354.74,590.22 L354.74,588.36 L355.52,588.28 L355.91,587.96 L357.80,588.45 L358.25,589.52 L359.66,589.53 L361.09,589.11 L361.09,589.39 L362.22,589.59 L362.81,590.00 L363.13,589.87 L363.60,588.76 L365.14,588.80 L367.24,587.50 L369.37,588.17 L370.18,588.76 L370.34,588.88 Z M389.27,637.36 L389.70,637.97 L389.25,638.38 L389.08,637.79 L388.01,637.56 L388.88,637.18 L389.26,637.35 L389.27,637.36 Z M408.56,636.64 L409.87,637.49 L408.55,636.67 L408.56,636.64 Z M408.56,636.64 L408.57,636.61 L408.56,636.64 Z M396.93,635.88 L397.20,636.19 L396.74,636.33 L396.93,635.88 L396.93,635.88 Z M394.61,633.28 L394.32,633.94 L393.91,633.41 L392.52,633.77 L393.95,633.07 L394.60,633.20 L394.61,633.28 Z M396.74,632.08 L397.23,632.14 L397.69,632.55 L396.48,632.47 L396.43,632.19 L396.72,632.07 L396.74,632.08 Z M399.04,631.79 L398.53,631.52 L399.17,630.57 L399.24,631.75 L399.04,631.79 Z M398.73,629.75 L399.19,630.09 L398.42,630.44 L398.32,630.04 L398.66,629.69 L398.73,629.75 Z M385.86,626.95 L387.63,626.97 L386.45,627.29 L386.23,627.90 L386.50,628.06 L386.94,627.70 L387.31,627.77 L387.41,629.55 L386.80,628.83 L385.84,628.31 L384.57,628.39 L384.20,627.53 L384.88,627.62 L384.98,627.05 L385.84,626.95 L385.86,626.95 Z M385.48,623.92 L385.74,624.09 L385.40,624.45 L385.14,624.07 L385.45,623.88 L385.48,623.92 Z M408.50,636.53 L408.14,636.31 L407.41,636.64 L407.06,637.25 L406.45,636.93 L404.98,636.90 L404.87,634.48 L402.97,634.48 L402.97,633.40 L403.04,634.45 L404.87,634.43 L405.55,633.22 L404.59,632.10 L403.77,632.23 L403.46,632.82 L402.83,633.11 L403.66,631.38 L403.15,631.27 L402.52,631.96 L401.65,630.63 L401.68,630.08 L402.35,628.83 L403.10,628.45 L403.07,628.04 L402.19,628.16 L401.72,629.38 L400.36,630.37 L400.21,630.27 L400.67,629.51 L400.44,629.32 L399.87,629.65 L399.30,628.66 L397.55,629.16 L397.71,627.09 L397.38,626.50 L397.10,626.52 L396.80,627.27 L395.41,626.76 L394.89,627.35 L395.38,628.06 L394.60,628.57 L394.10,628.10 L394.10,628.77 L392.64,627.53 L392.72,626.37 L392.56,626.17 L392.13,626.53 L392.59,626.06 L393.37,626.19 L393.94,625.86 L394.96,624.27 L394.69,622.18 L393.49,620.51 L394.23,620.16 L394.04,619.24 L393.74,618.94 L392.98,619.39 L393.37,620.05 L392.41,618.54 L392.98,617.12 L390.83,617.36 L389.18,618.36 L389.80,620.63 L390.54,622.09 L390.41,622.49 L389.57,622.74 L389.26,623.36 L388.38,623.91 L387.72,622.96 L388.13,622.37 L387.74,621.63 L387.80,621.16 L387.00,619.98 L386.43,619.82 L384.19,620.01 L383.73,617.74 L383.85,617.16 L384.26,617.63 L384.66,617.48 L384.65,616.57 L382.90,616.80 L382.61,617.09 L382.76,617.66 L381.32,617.04 L380.50,617.36 L380.48,618.68 L380.04,619.72 L379.31,620.00 L379.82,620.68 L381.17,620.73 L381.95,619.94 L381.21,620.75 L379.43,620.65 L378.97,619.75 L379.07,619.45 L378.57,619.11 L377.85,619.63 L377.09,619.61 L377.19,618.91 L377.67,618.26 L378.57,617.97 L378.57,617.44 L378.02,617.27 L377.58,616.53 L379.15,615.64 L379.34,614.78 L380.88,613.02 L381.17,612.36 L382.90,610.54 L384.52,610.56 L385.99,609.67 L388.88,609.53 L390.68,611.17 L391.96,611.47 L392.57,612.01 L396.94,612.63 L397.99,613.46 L400.95,614.76 L401.98,614.95 L402.43,612.50 L403.40,612.65 L404.31,612.42 L405.22,612.99 L405.46,612.22 L406.63,612.07 L407.33,612.89 L409.45,614.18 L410.97,614.63 L412.46,614.68 L414.03,617.10 L414.11,618.19 L414.97,618.04 L415.17,618.82 L416.65,620.29 L418.34,620.64 L418.95,621.29 L420.00,620.87 L420.30,621.14 L420.42,621.74 L421.00,622.48 L420.60,623.41 L421.10,624.26 L421.92,624.64 L422.00,625.65 L421.74,626.39 L420.44,627.37 L419.82,627.18 L418.28,627.38 L417.77,628.48 L417.67,629.46 L417.27,629.88 L416.62,629.97 L417.50,629.88 L418.27,629.14 L419.32,630.12 L418.89,630.61 L418.90,631.00 L417.97,631.09 L417.97,631.42 L417.40,631.76 L416.07,631.78 L416.09,633.03 L410.99,633.06 L410.55,631.31 L411.94,629.28 L412.52,629.14 L413.39,629.47 L413.93,629.31 L414.33,628.26 L414.24,627.97 L413.65,627.77 L412.44,628.28 L411.62,628.28 L412.23,627.47 L411.60,626.29 L411.80,624.87 L410.89,624.72 L410.51,625.01 L409.90,627.25 L408.57,628.19 L408.04,627.13 L406.78,626.77 L406.73,627.52 L407.31,628.51 L410.84,628.48 L410.86,629.69 L410.20,630.68 L409.94,631.72 L409.14,632.06 L409.19,635.97 L408.84,635.80 L408.35,636.19 L408.46,636.45 L408.50,636.53 Z"/><text class="wa-outline__label" x="375" y="709">창원</text><text class="wa-outline__area" x="375" y="729">754 km²</text></g>
</svg>
