<svg xmlns="http://www.w3.org/2000/svg" viewBox="0 0 760 730" role="img">
<style>
  svg { background: #171b20; }
  .wa-map__sido { fill: #343a42; stroke: #7b8490; stroke-width: 0.8px; }
  .wa-map__sido--selected { stroke-width: 1px; }
  .wa-map__label { font: 700 17px system-ui, -apple-system, sans-serif; fill: #f3f5f7; stroke: #171b20; stroke-width: 5px; stroke-linejoin: round; paint-order: stroke; text-anchor: middle; dominant-baseline: middle; }
  .wa-map__label--sigungu { font-size: 14px; }
  .wa-map__label--do { font-size: 14px; font-weight: 400; fill: #8a9da0; stroke: none; letter-spacing: 0.05em; }
</style>
<title>대한민국 행정경계 맥락 지도</title>
<desc>GIS GeoService 2025 공개 행정경계를 이용해 17개 시도와 주요 일반시 위치를 표시한 지도입니다. 광주광역시와 전라남도는 분리되어 있습니다.</desc>
<path class="wa-map__sido wa-map__sido--selected" style="fill:#8E1F2F;fill-opacity:0.12;stroke:#8E1F2F" fill-rule="evenodd" clip-rule="evenodd" d="M257.37,136.74 L258.35,137.33 L260.35,138.07 L263.43,137.37 L264.88,138.81 L266.50,144.81 L267.08,148.41 L266.81,149.69 L266.17,151.33 L265.58,151.77 L265.35,152.35 L265.34,154.20 L265.71,154.78 L266.94,154.41 L269.47,153.30 L271.85,151.99 L272.60,151.86 L273.35,154.24 L273.42,156.04 L271.48,156.22 L270.57,157.52 L269.19,160.59 L269.28,161.14 L269.71,161.40 L270.79,161.59 L270.92,161.42 L271.28,161.80 L270.90,163.17 L269.89,164.23 L262.14,170.42 L260.41,170.70 L259.30,169.50 L257.83,167.01 L255.70,166.22 L254.95,166.18 L252.73,167.41 L251.70,168.42 L251.71,168.88 L251.56,169.16 L250.91,169.35 L246.03,169.97 L245.65,169.89 L243.97,167.13 L242.55,163.54 L239.80,164.89 L238.36,164.52 L237.36,164.09 L237.39,161.74 L238.29,158.32 L238.27,158.03 L237.69,156.95 L237.26,156.57 L236.22,156.20 L235.67,156.31 L235.41,156.56 L232.67,155.59 L232.14,154.85 L234.89,151.46 L234.87,151.10 L235.33,149.17 L235.80,148.55 L238.26,150.74 L240.83,152.48 L242.51,151.96 L245.40,150.51 L245.62,149.85 L245.97,146.78 L246.83,143.68 L250.08,141.96 L251.13,142.70 L251.74,145.14 L253.86,143.41 L254.80,139.97 L256.46,137.24 L256.94,136.68 L257.37,136.74 Z"/>
<path class="wa-map__sido wa-map__sido--selected" style="fill:#D71920;fill-opacity:0.12;stroke:#D71920" fill-rule="evenodd" clip-rule="evenodd" d="M461.53,460.49 L461.77,460.00 L464.69,458.77 L466.23,460.92 L468.04,464.23 L466.68,465.07 L462.36,461.78 L461.81,461.23 L461.53,460.49 Z M461.77,460.00 L461.47,460.15 L461.53,460.49 L460.35,462.97 L460.50,463.16 L460.62,464.12 L460.00,465.06 L459.54,465.31 L458.88,463.00 L458.72,461.78 L456.76,464.44 L455.62,466.81 L455.02,467.41 L454.01,465.35 L453.28,462.13 L451.01,462.42 L446.43,462.16 L441.64,461.67 L441.43,461.47 L443.00,465.59 L443.14,466.84 L442.18,471.42 L441.81,472.46 L441.02,473.38 L440.20,472.78 L439.96,471.61 L440.37,471.50 L440.74,470.42 L438.03,466.22 L439.34,463.62 L441.17,463.23 L441.16,462.45 L439.02,462.48 L440.76,460.91 L441.21,461.24 L439.91,460.09 L441.36,459.43 L442.05,458.91 L442.21,458.50 L442.18,458.01 L441.63,456.67 L441.30,456.23 L439.33,455.62 L438.53,454.83 L437.19,453.08 L437.07,452.60 L437.15,452.43 L437.41,452.37 L443.80,451.14 L444.59,451.18 L444.83,446.97 L445.70,445.91 L446.41,445.35 L448.60,444.92 L449.53,444.99 L455.33,443.61 L456.40,443.29 L457.43,442.74 L457.88,442.23 L459.14,439.07 L463.30,436.02 L465.48,435.56 L469.34,432.95 L471.51,427.91 L475.95,427.79 L477.52,426.49 L478.02,425.92 L478.22,423.27 L479.36,424.14 L480.01,424.34 L481.36,424.05 L481.83,423.81 L483.28,423.59 L484.86,423.65 L486.40,425.89 L488.92,430.29 L489.03,430.94 L488.37,431.73 L487.58,431.79 L487.11,431.55 L484.50,434.41 L483.69,439.05 L483.86,440.77 L481.01,448.28 L478.02,451.60 L476.73,452.29 L476.27,452.28 L475.50,451.79 L475.01,451.80 L470.62,452.44 L470.24,452.72 L469.94,453.26 L469.98,454.40 L470.58,454.97 L471.42,456.95 L471.33,457.87 L470.95,459.31 L469.03,460.25 L468.47,460.35 L464.95,458.17 L465.51,457.40 L465.69,456.54 L464.84,455.93 L463.63,456.83 L461.84,459.84 L461.77,460.00 Z"/>
<path class="wa-map__sido wa-map__sido--selected" style="fill:#008837;fill-opacity:0.12;stroke:#008837" fill-rule="evenodd" clip-rule="evenodd" d="M401.09,307.42 L402.89,309.23 L404.03,309.80 L405.22,310.29 L406.31,310.26 L408.08,310.71 L418.12,314.69 L419.38,315.36 L419.83,315.85 L419.53,319.53 L420.58,320.97 L421.82,320.33 L424.03,321.12 L425.73,321.98 L425.54,322.67 L426.40,323.04 L426.78,323.10 L431.75,322.51 L433.47,323.48 L435.45,323.97 L435.66,323.95 L436.16,323.07 L436.38,322.41 L436.28,322.28 L436.78,321.54 L438.65,320.50 L440.38,320.81 L443.17,322.07 L444.15,322.84 L445.22,325.07 L445.69,326.71 L445.70,327.67 L445.34,329.71 L439.46,334.96 L437.33,336.57 L436.48,336.93 L435.33,336.91 L432.82,335.27 L430.52,335.03 L429.47,336.06 L427.49,338.45 L426.87,340.26 L425.60,345.57 L425.87,346.19 L426.30,346.44 L427.81,346.75 L428.50,347.04 L428.93,347.39 L429.69,348.46 L432.23,359.45 L432.60,361.75 L432.56,363.45 L432.48,364.42 L431.58,365.50 L430.35,366.29 L429.99,366.27 L427.62,369.03 L424.75,374.01 L424.71,374.84 L426.13,378.23 L425.81,381.04 L424.94,382.52 L420.93,384.36 L418.53,384.88 L417.92,384.00 L417.78,382.47 L418.00,381.49 L417.88,380.68 L417.73,380.48 L414.49,380.49 L412.72,381.11 L409.19,383.78 L409.54,384.49 L409.61,385.78 L409.43,387.47 L408.24,387.93 L407.18,388.76 L407.28,391.70 L404.62,393.49 L400.12,394.08 L397.91,395.43 L394.54,397.14 L394.08,397.11 L393.56,396.91 L393.39,396.69 L395.14,395.71 L396.43,393.86 L396.49,393.49 L396.29,392.27 L395.59,391.39 L393.70,389.88 L392.42,388.56 L391.90,387.75 L391.49,386.66 L391.31,385.85 L391.33,385.03 L391.68,384.62 L392.04,384.45 L397.47,386.00 L398.48,385.81 L399.48,384.85 L399.66,384.58 L399.75,383.62 L399.42,382.27 L397.90,381.04 L395.28,379.48 L394.48,378.26 L394.48,378.03 L396.93,373.14 L398.21,371.86 L400.25,371.85 L400.26,372.26 L403.24,372.24 L403.59,372.09 L404.48,371.03 L404.50,370.72 L404.31,369.22 L403.03,368.19 L401.12,367.19 L397.91,366.70 L396.58,366.58 L394.69,366.67 L394.38,366.49 L394.43,364.89 L395.89,360.61 L398.49,357.09 L401.43,355.18 L403.28,355.88 L403.69,356.24 L403.46,358.36 L403.34,358.73 L402.94,359.18 L402.80,359.74 L402.85,360.51 L403.62,361.22 L405.76,361.85 L406.72,360.91 L408.89,357.58 L409.62,355.68 L409.50,353.54 L410.71,351.87 L415.14,350.54 L416.47,349.50 L418.57,346.97 L419.31,339.59 L419.17,338.36 L418.80,337.94 L418.55,337.90 L415.79,338.62 L415.67,339.20 L415.77,339.63 L415.46,340.13 L413.22,340.47 L412.88,340.38 L412.35,339.31 L412.49,338.38 L411.93,333.10 L410.50,328.87 L410.66,327.56 L411.07,327.48 L411.50,325.95 L409.44,323.76 L404.25,319.42 L403.25,319.14 L401.02,320.22 L399.42,320.25 L397.38,317.54 L396.92,312.94 L397.55,310.92 L400.70,307.38 L400.92,307.38 L401.09,307.42 Z"/>
<path class="wa-map__sido wa-map__sido--selected" style="fill:#2CA6A4;fill-opacity:0.12;stroke:#2CA6A4" fill-rule="evenodd" clip-rule="evenodd" d="M167.42,192.34 L167.59,192.40 L168.13,191.75 L168.35,191.76 L172.07,194.23 L172.07,194.47 L169.90,196.37 L167.21,197.08 L166.65,196.75 L164.43,194.85 L164.64,193.36 L165.75,189.51 L166.02,188.95 L166.74,191.00 L167.39,192.33 L167.42,192.34 Z M205.11,190.75 L204.60,191.34 L203.93,191.31 L203.03,192.25 L203.62,193.31 L203.00,193.64 L201.24,195.65 L198.91,194.75 L198.54,194.39 L198.27,190.91 L199.18,189.56 L202.12,188.17 L203.91,188.47 L204.81,189.61 L205.11,190.75 Z M212.15,159.64 L213.33,160.98 L213.74,162.73 L212.06,163.99 L208.55,164.68 L206.27,165.63 L204.96,166.90 L204.15,168.23 L199.90,171.13 L197.62,170.95 L197.45,170.15 L196.96,169.28 L195.21,167.95 L192.88,167.89 L192.55,166.61 L191.68,166.25 L191.37,165.77 L191.30,165.20 L191.71,164.50 L197.16,161.91 L202.50,161.47 L205.32,159.70 L205.20,159.64 L205.39,158.10 L205.65,157.51 L207.30,157.13 L212.14,159.63 L212.15,159.64 Z M228.15,150.13 L230.53,151.29 L232.23,150.74 L234.24,150.96 L234.89,151.46 L232.14,154.85 L231.00,159.51 L230.10,159.69 L229.66,160.48 L229.71,163.20 L232.22,165.11 L233.15,165.06 L233.37,165.55 L233.23,166.96 L232.48,170.34 L232.32,170.63 L230.84,171.86 L229.79,173.91 L228.03,175.71 L222.88,179.95 L219.45,181.16 L217.69,181.17 L214.92,180.95 L213.73,180.46 L213.74,179.51 L220.30,179.55 L217.34,176.69 L215.08,171.85 L218.63,170.58 L218.58,170.20 L216.93,167.30 L216.64,167.15 L215.64,169.13 L214.97,169.13 L214.85,167.80 L215.08,165.09 L215.65,163.72 L216.22,163.17 L215.49,155.18 L214.58,152.75 L213.22,150.43 L218.28,148.71 L221.28,144.33 L222.40,144.59 L222.94,144.86 L225.47,146.87 L226.18,147.64 L226.25,148.15 L228.15,150.13 Z M127.42,139.87 L125.99,141.24 L125.15,141.12 L125.03,140.16 L125.11,137.85 L127.47,137.71 L128.01,137.82 L128.22,137.91 L128.35,138.61 L127.42,139.87 Z M193.14,140.80 L190.48,143.11 L189.89,142.90 L188.81,141.97 L188.55,141.30 L188.86,140.93 L188.97,139.98 L188.01,138.50 L187.60,138.10 L185.06,136.79 L183.91,134.94 L185.16,130.90 L185.50,130.65 L187.97,129.74 L188.37,129.76 L187.92,133.35 L188.02,134.53 L188.46,135.11 L190.05,136.41 L190.94,136.74 L192.80,137.12 L193.61,137.91 L193.96,138.62 L193.71,139.78 L193.36,140.57 L193.14,140.80 Z M35.05,123.13 L35.33,123.19 L34.96,123.89 L34.98,124.68 L34.51,124.87 L33.36,124.31 L32.16,124.78 L31.91,125.29 L31.29,125.36 L31.07,125.66 L30.79,125.25 L31.44,124.74 L31.55,124.12 L32.28,123.87 L32.33,123.54 L32.10,123.39 L32.20,123.17 L32.78,123.55 L33.23,123.32 L34.26,123.31 L34.98,123.12 L35.05,123.13 Z M185.76,123.45 L187.64,123.54 L188.48,123.25 L188.72,122.78 L189.06,123.08 L189.50,123.86 L189.62,124.20 L189.32,124.88 L187.77,127.07 L185.52,128.16 L179.61,129.78 L179.01,129.47 L177.15,127.60 L178.76,123.05 L180.49,121.54 L182.86,121.52 L183.54,122.08 L185.76,123.45 Z M205.59,125.56 L206.04,125.68 L206.75,126.21 L208.30,130.34 L207.37,133.26 L207.22,134.52 L208.07,136.75 L207.75,138.80 L208.10,142.29 L208.84,144.26 L209.63,145.83 L209.01,147.25 L207.30,148.88 L201.79,149.84 L196.22,149.52 L193.40,147.25 L193.35,144.84 L193.54,144.24 L195.21,143.77 L195.75,143.80 L196.40,143.31 L197.00,142.05 L196.52,139.72 L195.20,136.88 L194.63,136.33 L192.52,135.79 L192.16,135.83 L191.32,134.16 L191.52,125.49 L191.91,124.64 L196.74,121.15 L199.20,120.14 L201.60,122.81 L204.91,125.30 L205.59,125.56 Z M29.23,119.42 L28.55,119.81 L26.74,119.53 L25.16,117.99 L25.19,117.56 L28.65,114.28 L28.95,114.25 L29.09,114.37 L30.31,117.83 L30.08,118.72 L29.27,119.39 L29.23,119.42 Z M31.95,98.66 L32.13,100.28 L28.52,104.97 L26.89,105.05 L23.44,104.92 L22.75,104.78 L20.18,99.67 L20.00,98.96 L20.74,97.79 L22.82,99.19 L23.04,99.21 L28.93,97.56 L30.76,97.69 L31.87,98.30 L31.95,98.66 Z"/>
<path class="wa-map__sido wa-map__sido--selected" style="fill:#E8380C;fill-opacity:0.12;stroke:#E8380C" fill-rule="evenodd" clip-rule="evenodd" d="M229.37,440.54 L229.23,442.20 L229.35,443.62 L232.91,445.41 L233.94,445.61 L241.44,441.82 L244.12,440.72 L245.12,440.71 L246.62,441.44 L248.59,444.34 L250.91,450.41 L253.42,449.38 L253.79,449.39 L254.50,449.84 L256.06,451.57 L254.56,457.46 L251.57,461.45 L249.00,463.64 L248.27,463.81 L243.96,462.70 L239.03,463.04 L236.30,465.07 L235.14,466.21 L233.99,466.42 L230.46,466.16 L228.82,465.48 L228.46,464.67 L228.51,464.49 L228.85,464.22 L229.36,464.20 L230.03,463.53 L229.70,462.31 L229.38,461.41 L227.43,459.59 L227.00,459.33 L226.26,459.11 L222.81,459.30 L219.93,459.64 L218.60,458.49 L218.13,457.66 L218.05,454.23 L218.72,448.54 L225.21,444.48 L226.26,442.40 L227.00,441.37 L229.13,440.58 L229.37,440.54 Z"/>
<path class="wa-map__sido wa-map__sido--selected" style="fill:#00944E;fill-opacity:0.12;stroke:#00944E" fill-rule="evenodd" clip-rule="evenodd" d="M294.71,287.70 L294.98,290.04 L294.81,291.46 L295.07,291.88 L299.55,292.67 L299.97,292.66 L300.68,292.29 L301.10,291.81 L301.20,291.29 L302.77,291.79 L304.61,296.88 L305.02,297.72 L305.68,297.77 L305.92,297.60 L306.33,296.00 L307.31,295.88 L309.08,296.82 L310.16,298.44 L305.68,305.76 L304.92,306.35 L303.46,316.06 L303.62,317.28 L304.12,318.96 L300.39,323.59 L299.19,324.34 L298.93,324.33 L295.85,321.59 L294.44,319.68 L293.64,316.84 L293.81,315.93 L292.53,314.78 L292.01,314.69 L291.17,315.04 L290.78,315.93 L290.79,316.81 L291.17,317.26 L291.27,318.25 L291.05,320.74 L290.47,322.03 L288.76,325.06 L288.27,325.74 L287.89,325.66 L287.88,324.17 L286.81,321.91 L286.23,321.01 L285.13,319.98 L284.98,320.29 L285.07,320.77 L284.96,320.94 L284.52,321.01 L284.12,320.80 L283.00,319.05 L279.37,312.37 L281.28,306.48 L282.73,301.39 L282.95,296.95 L287.40,296.03 L288.76,295.05 L290.37,292.53 L290.65,291.83 L291.14,287.63 L292.84,286.40 L293.20,286.31 L294.43,287.37 L294.71,287.70 Z"/>
<path class="wa-map__sido wa-map__sido--selected" style="fill:#0072BC;fill-opacity:0.12;stroke:#0072BC" fill-rule="evenodd" clip-rule="evenodd" d="M472.18,381.58 L473.14,382.29 L477.16,382.45 L479.23,382.74 L483.20,384.23 L483.81,385.41 L483.56,387.76 L483.07,388.50 L483.16,389.24 L483.67,389.95 L487.33,391.12 L490.51,389.31 L491.51,387.99 L492.64,386.95 L493.30,386.69 L494.05,386.77 L502.09,389.60 L502.91,390.03 L502.10,390.84 L502.07,392.43 L503.03,394.54 L503.83,394.65 L504.33,395.52 L504.59,398.05 L504.20,398.34 L504.02,398.27 L503.40,399.00 L503.42,399.88 L503.78,400.70 L503.98,402.05 L503.06,405.60 L502.63,408.14 L502.81,409.83 L501.55,411.29 L499.40,412.46 L498.91,412.40 L498.71,411.76 L498.69,410.71 L499.09,409.76 L496.94,405.60 L495.75,404.25 L495.36,406.05 L495.64,406.80 L496.34,406.88 L496.74,408.86 L496.80,410.85 L496.59,412.92 L496.03,413.84 L495.14,414.69 L493.94,414.20 L492.16,411.75 L493.24,415.47 L493.81,416.71 L494.81,416.29 L494.66,421.25 L492.94,427.22 L490.28,429.21 L489.22,430.45 L488.92,430.29 L486.40,425.89 L484.86,423.65 L483.28,423.59 L481.83,423.81 L481.36,424.05 L480.01,424.34 L479.36,424.14 L478.22,423.27 L479.99,420.85 L479.98,420.56 L479.21,419.36 L477.19,417.21 L475.81,417.77 L474.48,417.73 L471.91,415.93 L466.74,409.70 L462.94,407.83 L458.57,406.73 L456.91,406.14 L456.33,403.23 L456.78,401.31 L459.27,399.18 L459.65,398.24 L459.63,395.48 L459.26,395.22 L457.56,394.67 L457.87,394.28 L464.04,389.37 L464.00,388.21 L464.26,386.83 L465.31,385.13 L466.36,384.26 L471.05,381.95 L472.18,381.58 Z"/>
<path class="wa-map__sido wa-map__sido--selected" style="fill:#004EA2;fill-opacity:0.12;stroke:#004EA2" fill-rule="evenodd" clip-rule="evenodd" d="M271.42,257.23 L275.19,258.42 L278.51,260.76 L279.38,261.94 L280.57,262.33 L283.34,262.59 L285.12,263.25 L285.58,263.68 L285.28,265.49 L284.40,266.47 L283.68,266.55 L282.36,268.92 L282.50,269.26 L282.69,269.57 L283.92,270.47 L284.78,271.69 L285.44,273.66 L285.28,274.96 L288.46,277.63 L291.90,278.06 L292.39,277.94 L294.72,281.24 L295.73,285.13 L295.90,286.63 L295.81,286.93 L294.43,287.37 L293.20,286.31 L292.84,286.40 L291.14,287.63 L290.65,291.83 L290.37,292.53 L288.76,295.05 L287.40,296.03 L282.95,296.95 L281.28,296.63 L280.68,296.86 L280.63,297.30 L278.27,296.42 L274.70,293.65 L275.18,291.37 L275.04,290.66 L272.09,286.36 L271.71,285.17 L272.15,281.04 L274.49,278.27 L275.06,277.91 L275.53,276.60 L275.32,276.25 L272.59,274.24 L272.01,274.34 L270.96,273.27 L269.76,271.47 L270.46,270.45 L270.63,264.75 L269.07,262.41 L268.15,260.55 L268.56,259.62 L270.00,257.85 L270.77,257.31 L271.27,257.19 L271.42,257.23 Z"/>
<path class="wa-map__sido wa-map__sido--selected" style="fill:#6f7473;fill-opacity:0.12;stroke:#6f7473" fill-rule="evenodd" clip-rule="evenodd" d="M229.30,219.09 L230.65,216.87 L223.58,209.86 L221.38,204.33 L220.70,199.03 L220.93,194.78 L220.09,193.49 L219.94,191.61 L220.50,189.75 L221.44,187.98 L223.72,188.79 L224.80,189.02 L231.29,188.11 L235.88,187.30 L236.61,187.40 L237.16,187.72 L237.64,188.34 L238.03,189.41 L238.98,189.73 L239.03,189.52 L236.81,186.85 L233.51,187.54 L232.03,187.42 L228.56,186.37 L225.94,185.14 L223.97,183.95 L222.49,182.80 L216.86,184.71 L213.18,187.22 L213.75,188.26 L219.04,191.68 L220.72,195.79 L220.74,197.65 L220.51,198.88 L219.80,200.13 L219.66,200.14 L219.50,200.13 L217.90,196.44 L217.61,195.48 L217.61,194.59 L214.89,194.92 L212.93,196.25 L212.04,194.16 L211.12,190.36 L211.01,189.22 L212.99,187.14 L215.94,185.09 L217.43,184.41 L224.49,181.98 L224.74,180.41 L228.19,176.02 L229.78,174.23 L231.58,174.36 L233.08,174.81 L230.84,171.86 L232.32,170.63 L232.48,170.34 L233.23,166.96 L233.37,165.55 L233.15,165.06 L232.22,165.11 L229.71,163.20 L229.66,160.48 L230.10,159.69 L231.00,159.51 L232.14,154.85 L232.67,155.59 L235.41,156.56 L235.67,156.31 L236.22,156.20 L237.26,156.57 L237.69,156.95 L238.27,158.03 L238.29,158.32 L237.39,161.74 L237.36,164.09 L238.36,164.52 L239.80,164.89 L242.55,163.54 L243.96,167.11 L245.65,169.89 L246.03,169.97 L250.91,169.35 L251.56,169.16 L251.71,168.88 L251.70,168.42 L252.73,167.41 L254.95,166.18 L255.70,166.22 L257.83,167.01 L259.30,169.50 L260.43,170.70 L262.14,170.42 L269.89,164.23 L270.90,163.17 L271.28,161.80 L270.92,161.42 L270.79,161.59 L269.71,161.40 L269.28,161.14 L269.19,160.59 L270.57,157.52 L271.48,156.22 L273.42,156.04 L273.45,155.52 L273.35,154.24 L272.60,151.86 L271.85,151.99 L269.47,153.30 L266.94,154.41 L265.71,154.78 L265.34,154.20 L265.35,152.35 L265.58,151.77 L266.17,151.33 L266.81,149.69 L267.08,148.41 L266.50,144.81 L264.88,138.81 L263.43,137.37 L260.35,138.07 L258.35,137.33 L257.37,136.74 L256.94,136.68 L256.46,137.24 L254.80,139.97 L253.86,143.41 L251.74,145.14 L251.13,142.70 L250.08,141.96 L246.83,143.68 L245.97,146.78 L245.62,149.85 L245.41,150.50 L242.51,151.96 L240.83,152.48 L238.26,150.74 L235.80,148.55 L235.33,149.17 L234.87,151.10 L234.89,151.46 L234.24,150.96 L232.23,150.74 L230.53,151.29 L228.15,150.13 L226.25,148.15 L226.18,147.64 L225.47,146.87 L222.94,144.86 L221.46,144.33 L221.28,144.33 L218.28,148.71 L213.22,150.43 L212.04,149.10 L211.29,147.61 L209.63,141.90 L210.04,141.61 L210.28,141.12 L207.85,128.66 L207.73,127.63 L207.84,126.88 L208.33,125.26 L211.46,126.85 L213.49,128.73 L215.30,128.94 L222.13,126.57 L223.65,118.64 L224.60,115.17 L223.26,109.96 L222.70,109.52 L222.59,109.16 L223.15,104.86 L226.34,102.46 L231.77,101.37 L237.01,99.46 L237.57,99.07 L241.14,94.05 L241.69,91.74 L242.02,88.81 L241.52,87.01 L242.15,85.94 L244.78,83.41 L246.33,82.29 L247.49,82.42 L247.94,82.78 L252.68,81.41 L252.35,78.19 L252.76,74.66 L253.97,71.19 L254.94,70.93 L255.73,71.62 L263.18,65.09 L265.14,64.52 L265.97,64.62 L266.66,65.82 L266.51,66.79 L266.58,69.06 L266.80,69.91 L267.85,70.58 L268.65,70.59 L270.23,69.69 L272.70,74.53 L274.32,79.51 L277.26,82.29 L277.54,82.49 L280.90,79.15 L281.72,78.23 L281.92,77.73 L281.83,77.58 L284.10,78.95 L282.70,82.70 L282.92,83.58 L283.57,85.13 L287.22,87.83 L288.82,88.45 L289.00,88.16 L288.96,87.63 L289.10,87.02 L292.93,84.89 L298.07,85.28 L299.01,86.09 L299.47,87.50 L299.62,91.27 L300.04,94.90 L300.62,97.34 L301.08,98.04 L302.06,98.84 L305.25,99.89 L306.09,99.61 L307.93,99.34 L308.79,99.57 L309.51,102.34 L311.97,104.13 L313.32,104.43 L314.96,105.24 L315.91,107.03 L316.36,108.56 L316.40,110.86 L316.19,111.84 L315.47,113.68 L314.50,115.15 L313.27,115.05 L312.55,115.32 L307.77,119.59 L307.32,120.84 L307.92,126.85 L308.91,128.16 L309.31,129.06 L309.30,129.51 L309.03,130.18 L308.23,130.93 L305.98,132.45 L305.57,133.08 L305.47,133.98 L305.57,134.42 L306.04,135.03 L310.77,134.92 L309.88,138.71 L308.40,143.12 L308.40,143.83 L308.62,144.27 L309.64,145.30 L310.75,145.89 L312.85,145.27 L313.07,145.11 L313.61,144.08 L314.98,143.01 L315.38,143.10 L318.42,144.96 L324.30,149.31 L330.42,151.04 L338.51,154.45 L339.36,155.31 L339.16,156.33 L338.77,156.98 L337.47,157.20 L335.55,157.12 L332.00,161.10 L334.15,165.25 L334.93,169.96 L332.26,176.91 L330.74,178.52 L330.49,180.97 L330.92,184.11 L330.55,189.57 L329.67,196.46 L329.23,197.49 L328.32,198.51 L326.99,201.46 L324.34,206.62 L323.48,207.29 L321.83,207.16 L320.80,206.69 L318.59,206.53 L318.23,211.82 L314.47,214.94 L312.64,214.74 L311.89,215.67 L310.06,218.50 L308.18,217.46 L306.72,216.95 L301.70,217.46 L300.56,218.86 L300.60,219.11 L300.85,219.37 L300.85,221.00 L300.71,221.57 L297.76,223.84 L293.82,226.59 L294.53,227.26 L295.03,228.14 L292.70,230.07 L291.06,230.39 L288.94,231.19 L285.78,232.89 L284.61,236.05 L283.90,237.25 L283.68,237.32 L282.76,235.76 L282.22,235.11 L276.02,231.74 L275.11,230.08 L272.72,228.73 L270.71,227.81 L266.23,227.39 L264.63,229.00 L264.55,229.55 L263.10,230.94 L258.08,232.92 L257.48,232.87 L256.46,232.04 L254.43,232.03 L248.86,234.24 L246.57,235.61 L245.86,236.18 L245.27,233.30 L244.83,232.65 L243.63,231.85 L241.66,232.21 L239.89,230.56 L237.33,225.86 L233.96,222.23 L231.94,220.15 L230.24,220.14 L229.92,220.01 L229.30,219.09 Z M233.44,174.77 L233.78,175.11 L234.31,174.63 L234.20,173.80 L234.26,174.52 L233.85,175.02 L233.68,175.00 L233.44,174.77 Z"/>
<path class="wa-map__sido wa-map__sido--selected" style="fill:#8a9493;fill-opacity:0.12;stroke:#8a9493" fill-rule="evenodd" clip-rule="evenodd" d="M469.30,162.46 L470.45,164.27 L473.97,171.49 L475.83,173.19 L478.83,177.33 L480.87,182.45 L483.95,185.99 L484.92,186.74 L486.01,187.28 L489.45,192.84 L488.39,194.99 L488.48,198.02 L488.89,200.31 L489.36,201.88 L490.55,204.12 L488.22,204.26 L483.81,207.86 L481.97,207.70 L481.51,207.91 L477.26,213.17 L477.18,213.58 L477.61,215.03 L477.75,217.04 L472.99,217.06 L472.99,216.83 L472.52,216.01 L471.03,214.28 L467.05,211.77 L464.57,210.43 L464.02,210.28 L461.84,211.49 L461.47,211.84 L461.01,213.03 L458.13,213.40 L454.10,212.83 L449.81,212.44 L446.21,213.09 L445.55,214.84 L444.25,216.34 L443.47,216.96 L441.40,217.40 L439.24,216.74 L438.13,214.97 L437.45,213.43 L432.53,211.76 L431.87,212.37 L431.26,215.06 L430.82,218.78 L429.99,219.83 L429.71,219.80 L425.87,218.04 L422.15,216.07 L419.79,215.28 L417.32,213.58 L416.06,213.27 L415.24,213.93 L413.76,213.76 L408.39,212.40 L408.13,212.12 L407.98,211.34 L404.19,207.94 L403.64,208.19 L402.72,209.46 L400.16,209.79 L398.10,209.81 L396.55,209.08 L395.14,207.88 L394.92,206.31 L394.68,205.69 L392.97,204.03 L389.63,204.13 L388.05,204.44 L385.73,205.68 L385.34,206.25 L384.16,206.85 L382.35,205.86 L381.92,205.43 L381.02,203.84 L382.16,202.51 L384.11,201.06 L387.15,199.20 L387.39,198.68 L387.61,197.28 L386.13,196.08 L385.51,196.48 L382.92,197.57 L381.37,197.93 L380.41,196.65 L375.98,193.22 L374.86,192.86 L368.77,195.45 L366.11,196.95 L365.76,198.06 L364.61,198.82 L362.06,199.91 L358.75,200.44 L358.36,200.41 L358.03,200.14 L357.47,198.79 L357.94,197.73 L356.44,193.39 L355.41,192.60 L354.52,192.26 L352.76,192.02 L352.61,191.84 L351.82,192.09 L348.54,194.05 L347.33,195.20 L346.86,195.91 L346.92,196.37 L347.41,196.97 L347.88,198.43 L348.13,200.32 L348.06,202.14 L347.09,203.66 L346.21,203.01 L339.43,205.04 L336.28,205.81 L334.97,206.09 L333.72,206.22 L333.55,206.12 L331.32,204.27 L330.47,203.02 L329.84,201.21 L329.17,198.00 L329.23,197.49 L329.67,196.46 L330.55,189.57 L330.92,184.11 L330.49,180.97 L330.74,178.52 L332.26,176.91 L334.93,169.96 L334.15,165.25 L332.00,161.10 L335.55,157.12 L337.47,157.20 L338.77,156.98 L339.16,156.33 L339.36,155.29 L338.51,154.45 L330.42,151.04 L324.30,149.31 L318.42,144.96 L315.38,143.10 L314.98,143.01 L313.61,144.08 L313.07,145.11 L312.85,145.27 L310.75,145.89 L309.64,145.30 L308.62,144.27 L308.38,143.74 L308.40,143.12 L309.88,138.71 L310.77,134.92 L306.04,135.03 L305.57,134.42 L305.47,133.98 L305.57,133.08 L305.98,132.45 L308.23,130.93 L309.03,130.18 L309.30,129.51 L309.31,129.06 L308.91,128.16 L307.92,126.85 L307.32,120.84 L307.77,119.59 L312.55,115.32 L313.27,115.05 L314.50,115.15 L315.47,113.68 L316.19,111.84 L316.40,110.86 L316.36,108.56 L315.91,107.03 L314.76,105.04 L313.32,104.43 L311.97,104.13 L309.51,102.34 L308.79,99.57 L307.93,99.34 L306.09,99.61 L305.25,99.89 L302.06,98.84 L301.08,98.04 L300.62,97.34 L300.04,94.90 L299.62,91.27 L299.47,87.50 L299.01,86.09 L298.07,85.28 L292.93,84.89 L289.10,87.02 L288.96,87.63 L289.00,88.16 L288.82,88.45 L287.22,87.83 L283.57,85.13 L282.92,83.58 L282.70,82.70 L284.10,78.95 L281.83,77.58 L281.92,77.73 L281.71,78.25 L277.54,82.49 L274.48,79.70 L274.29,79.44 L272.70,74.53 L270.23,69.69 L268.65,70.59 L267.85,70.58 L266.92,70.08 L266.58,69.06 L266.51,66.79 L266.66,65.82 L265.97,64.62 L265.14,64.52 L265.37,64.04 L268.78,60.52 L269.48,60.24 L270.29,60.94 L270.76,61.67 L270.98,61.74 L276.40,59.82 L278.24,58.48 L279.58,58.15 L284.43,59.47 L285.88,60.11 L291.49,58.99 L292.05,58.69 L293.23,57.66 L301.14,59.58 L302.53,60.33 L303.08,61.45 L304.67,62.21 L305.24,62.18 L306.30,61.81 L309.36,59.40 L312.51,57.76 L315.56,57.71 L316.15,58.07 L316.37,58.67 L316.24,58.98 L316.58,59.18 L321.60,59.37 L323.60,59.12 L323.80,58.90 L325.85,58.00 L331.94,56.96 L333.12,57.20 L334.03,59.37 L336.43,61.76 L337.54,61.56 L338.17,61.27 L339.31,60.41 L346.73,61.03 L348.42,61.44 L349.82,62.15 L351.61,63.83 L352.03,64.44 L352.85,64.99 L354.19,65.21 L354.55,64.92 L355.39,63.64 L357.05,60.78 L358.74,61.25 L360.66,60.88 L367.54,57.79 L372.63,53.43 L381.59,44.88 L382.66,42.25 L383.35,40.06 L384.41,35.50 L384.31,30.23 L383.96,25.40 L387.39,23.16 L388.58,22.85 L392.25,28.41 L394.71,35.39 L396.90,39.95 L398.85,43.30 L398.39,43.76 L398.29,44.63 L398.70,45.72 L403.62,54.17 L404.15,55.83 L405.67,58.77 L407.72,61.38 L407.96,63.64 L408.96,66.96 L412.82,72.26 L414.06,76.31 L413.80,78.11 L413.85,80.14 L414.26,81.09 L415.43,82.85 L420.18,88.56 L420.73,89.66 L420.58,90.20 L420.64,90.60 L427.26,99.52 L429.97,104.01 L432.73,107.78 L436.17,113.20 L441.04,119.86 L449.15,128.32 L456.83,137.07 L457.91,143.77 L458.76,145.50 L461.05,147.71 L463.53,149.65 L465.10,154.05 L464.82,154.08 L464.62,154.43 L465.74,157.99 L466.89,160.62 L467.47,161.24 L469.30,162.46 Z"/>
<path class="wa-map__sido wa-map__sido--selected" style="fill:#8a9493;fill-opacity:0.12;stroke:#8a9493" fill-rule="evenodd" clip-rule="evenodd" d="M352.76,192.02 L354.52,192.26 L355.41,192.60 L356.44,193.39 L357.94,197.73 L357.47,198.79 L358.03,200.14 L358.51,200.43 L362.06,199.91 L364.61,198.82 L365.76,198.06 L366.11,196.95 L368.77,195.45 L374.64,192.87 L375.98,193.22 L380.41,196.65 L381.37,197.93 L382.92,197.57 L385.51,196.48 L386.13,196.08 L387.61,197.28 L387.24,199.08 L384.11,201.06 L382.16,202.51 L381.02,203.84 L381.92,205.43 L382.58,206.07 L384.16,206.85 L385.34,206.25 L385.73,205.68 L388.05,204.44 L389.63,204.13 L392.97,204.03 L394.68,205.69 L394.92,206.31 L395.14,207.88 L396.55,209.08 L398.10,209.81 L400.16,209.79 L402.72,209.46 L403.64,208.19 L404.19,207.94 L407.98,211.34 L408.13,212.12 L408.39,212.40 L413.76,213.76 L415.24,213.93 L416.06,213.27 L417.32,213.58 L419.79,215.28 L419.06,216.01 L415.36,217.39 L412.98,218.06 L411.48,219.26 L411.19,219.70 L411.35,220.29 L411.92,220.78 L411.79,221.53 L410.17,223.75 L408.26,224.77 L402.90,228.85 L401.12,230.63 L399.29,233.90 L397.90,237.04 L397.29,238.84 L397.26,239.04 L397.50,239.16 L398.03,239.16 L398.56,239.40 L399.68,240.53 L399.79,240.71 L399.80,242.59 L397.50,246.66 L397.05,247.10 L392.27,247.66 L390.65,247.61 L386.53,246.07 L384.47,244.28 L383.80,243.23 L383.13,241.73 L378.95,239.75 L376.20,243.87 L376.65,246.33 L376.59,247.09 L376.46,247.25 L375.64,247.20 L368.30,245.26 L363.46,248.31 L362.63,247.47 L361.64,246.76 L361.33,246.67 L360.83,246.81 L360.41,248.09 L360.25,249.89 L359.10,252.79 L358.18,254.44 L358.18,255.39 L360.17,256.92 L361.78,258.52 L362.26,259.81 L362.03,260.33 L359.95,260.33 L353.65,259.15 L352.97,258.81 L352.22,257.99 L350.10,258.79 L349.25,260.50 L347.86,262.50 L347.62,262.57 L344.35,262.08 L342.43,263.55 L342.69,263.91 L342.96,264.03 L343.62,263.98 L344.13,263.56 L345.83,263.92 L347.94,265.25 L348.65,267.21 L348.76,268.15 L348.25,271.47 L347.64,273.44 L347.01,273.67 L344.72,270.49 L343.47,268.50 L342.93,266.76 L342.37,266.98 L341.04,269.43 L340.39,271.58 L338.75,272.68 L337.06,272.54 L334.82,273.60 L334.59,274.45 L334.82,275.54 L335.47,276.17 L337.44,277.47 L340.24,277.43 L341.05,277.82 L345.29,282.77 L345.69,285.40 L345.52,285.76 L344.82,286.46 L343.93,287.13 L343.68,287.14 L343.16,289.44 L342.67,299.89 L343.53,301.21 L344.25,303.73 L344.21,304.12 L343.27,305.55 L340.37,307.49 L339.26,309.94 L340.28,314.23 L342.95,314.23 L344.15,312.50 L345.73,312.25 L349.49,315.28 L353.04,316.43 L353.64,315.74 L356.17,314.59 L356.40,314.60 L359.26,316.16 L359.22,320.77 L357.72,322.72 L356.99,322.47 L356.39,322.44 L355.17,322.63 L353.08,323.80 L352.85,325.12 L354.40,329.61 L354.22,331.94 L354.02,332.52 L352.97,333.18 L351.53,338.91 L348.13,342.16 L347.37,341.75 L347.06,341.76 L343.77,344.03 L342.96,345.70 L341.32,344.59 L340.53,343.64 L340.10,343.57 L334.92,345.42 L331.08,346.56 L327.91,344.70 L324.68,342.29 L324.58,341.25 L323.97,340.76 L319.57,340.37 L318.83,340.08 L316.89,335.02 L315.98,333.96 L315.52,333.86 L314.86,333.20 L313.90,331.84 L314.05,330.55 L314.46,329.58 L314.81,329.29 L315.13,328.66 L314.92,323.05 L314.73,321.50 L313.29,319.79 L312.89,319.60 L311.95,319.51 L309.41,320.16 L305.74,318.86 L304.12,318.96 L303.62,317.28 L303.46,316.06 L304.92,306.35 L305.68,305.76 L310.16,298.44 L309.08,296.82 L307.31,295.88 L306.33,296.00 L305.92,297.60 L305.68,297.77 L305.02,297.72 L304.61,296.88 L302.77,291.79 L301.20,291.29 L301.10,291.81 L300.68,292.29 L299.97,292.66 L299.55,292.67 L295.07,291.88 L294.81,291.46 L294.98,290.04 L294.71,287.70 L294.43,287.37 L295.81,286.93 L295.90,286.63 L295.73,285.13 L294.72,281.24 L292.39,277.94 L291.90,278.06 L288.46,277.63 L285.28,274.96 L285.44,273.66 L284.78,271.69 L283.92,270.47 L282.69,269.57 L282.36,268.92 L283.68,266.55 L284.40,266.47 L285.28,265.49 L285.57,264.14 L285.58,263.68 L285.26,263.33 L283.34,262.59 L285.53,260.49 L285.77,258.72 L288.30,255.68 L289.23,254.76 L290.73,253.91 L291.31,253.81 L293.49,254.07 L293.72,254.72 L294.45,255.49 L295.29,255.73 L296.82,254.28 L296.90,253.88 L294.98,249.16 L293.07,247.29 L290.81,246.33 L288.27,244.97 L285.93,240.54 L285.43,238.35 L283.66,237.32 L283.90,237.25 L284.61,236.05 L285.78,232.89 L288.94,231.19 L291.06,230.39 L292.70,230.07 L295.03,228.14 L294.53,227.26 L293.82,226.59 L297.76,223.84 L300.71,221.57 L300.85,221.00 L300.85,219.37 L300.60,219.11 L300.56,218.86 L301.70,217.46 L306.72,216.95 L308.18,217.46 L310.06,218.50 L311.89,215.67 L312.64,214.74 L314.47,214.94 L318.23,211.82 L318.59,206.53 L320.80,206.69 L321.83,207.16 L323.48,207.29 L324.05,206.90 L324.34,206.62 L326.99,201.46 L328.32,198.51 L329.23,197.49 L329.18,198.25 L329.84,201.21 L330.37,202.82 L331.32,204.27 L333.72,206.22 L334.97,206.09 L339.43,205.04 L346.21,203.01 L347.09,203.66 L348.06,202.14 L348.13,200.32 L347.88,198.43 L347.41,196.97 L346.92,196.37 L346.86,195.91 L347.33,195.20 L348.54,194.05 L351.60,192.18 L352.61,191.84 L352.76,192.02 Z"/>
<path class="wa-map__sido wa-map__sido--selected" style="fill:#8a9493;fill-opacity:0.12;stroke:#8a9493" fill-rule="evenodd" clip-rule="evenodd" d="M202.82,284.60 L202.75,283.71 L203.06,283.35 L202.82,284.60 Z M185.95,274.50 L186.88,273.28 L188.18,272.32 L190.47,271.68 L191.06,272.02 L191.95,273.67 L192.29,279.58 L195.36,286.74 L195.15,288.68 L195.75,291.80 L196.44,292.46 L197.31,294.89 L197.29,295.97 L196.80,297.93 L196.34,297.95 L191.36,296.75 L189.61,294.96 L187.52,292.27 L187.14,288.79 L187.54,286.78 L188.19,285.01 L186.90,278.49 L185.82,276.77 L185.59,274.97 L185.95,274.50 Z M202.82,284.60 L202.98,284.74 L203.53,284.78 L203.57,284.23 L203.81,283.73 L204.76,282.95 L206.82,283.41 L208.45,285.39 L210.39,285.27 L210.73,285.16 L210.35,282.87 L207.32,283.27 L204.64,281.86 L203.06,283.35 L203.22,282.50 L200.75,275.11 L200.02,273.91 L195.92,271.43 L191.08,269.89 L188.48,271.23 L186.99,272.93 L185.83,274.62 L183.55,274.82 L182.94,274.18 L182.74,273.88 L183.43,271.23 L184.26,270.62 L184.47,270.20 L184.60,269.84 L184.61,268.56 L183.98,265.95 L182.98,264.21 L182.39,263.96 L181.12,264.22 L181.00,263.93 L180.71,261.22 L181.10,260.74 L181.67,260.39 L182.10,257.35 L181.20,257.36 L178.11,258.37 L177.95,259.30 L178.05,260.29 L177.49,261.12 L174.35,263.13 L172.40,263.37 L170.08,263.28 L169.75,263.03 L169.49,260.29 L171.15,258.55 L171.60,258.50 L172.89,258.81 L173.11,259.12 L174.04,259.77 L175.31,259.94 L176.37,259.25 L176.95,258.26 L176.91,257.87 L173.16,253.92 L171.30,253.24 L168.74,253.77 L169.10,254.24 L169.29,254.24 L169.64,254.53 L169.83,256.00 L169.66,256.71 L166.93,259.52 L166.53,259.40 L166.77,257.26 L168.22,251.08 L170.84,244.84 L171.96,246.64 L172.45,246.82 L173.34,246.31 L174.69,241.22 L173.93,239.78 L173.57,239.39 L173.52,237.84 L176.05,235.78 L179.81,234.32 L179.75,234.59 L182.56,236.05 L183.77,235.91 L184.16,235.67 L184.37,232.16 L184.00,229.23 L183.48,227.92 L183.61,227.14 L185.20,226.12 L185.52,226.26 L186.02,228.83 L185.15,230.33 L184.97,233.39 L186.20,237.88 L184.40,241.68 L182.92,245.66 L182.86,246.02 L183.51,248.35 L184.07,248.47 L188.52,246.28 L188.53,246.08 L187.80,245.41 L187.45,244.89 L186.73,242.86 L187.70,240.66 L188.14,240.40 L189.00,240.75 L191.14,242.03 L192.02,240.15 L193.45,238.31 L194.41,237.48 L198.01,236.13 L198.12,235.64 L196.85,231.30 L194.56,231.51 L193.18,231.03 L188.72,228.32 L188.75,227.35 L190.24,227.30 L193.66,227.52 L193.87,227.23 L193.66,226.75 L193.00,225.93 L192.49,225.62 L192.08,225.62 L191.54,226.06 L188.12,225.23 L187.82,224.55 L187.82,223.44 L195.70,221.20 L197.65,221.62 L200.26,222.69 L201.41,221.34 L204.02,216.17 L205.12,215.54 L207.02,216.22 L207.77,217.16 L207.91,217.92 L209.26,219.27 L218.32,223.52 L219.67,223.81 L223.09,223.96 L224.54,223.80 L225.47,223.86 L226.80,224.66 L229.14,225.68 L229.98,225.43 L233.04,226.81 L233.35,227.13 L233.10,227.70 L234.09,231.70 L236.62,236.76 L237.56,237.76 L241.12,238.84 L245.47,237.79 L246.01,237.27 L245.86,236.18 L246.57,235.61 L248.86,234.24 L254.43,232.03 L256.46,232.04 L257.48,232.87 L258.08,232.92 L263.10,230.94 L264.55,229.55 L264.63,229.00 L266.23,227.39 L270.43,227.74 L272.72,228.73 L275.11,230.08 L276.02,231.74 L282.22,235.11 L282.76,235.76 L283.66,237.32 L285.43,238.35 L285.93,240.54 L288.27,244.97 L290.81,246.33 L293.07,247.29 L294.94,249.12 L296.90,253.88 L296.82,254.28 L295.29,255.73 L294.45,255.49 L293.72,254.72 L293.49,254.07 L293.35,254.03 L291.31,253.81 L290.73,253.91 L289.23,254.76 L288.30,255.68 L285.77,258.72 L285.53,260.49 L283.34,262.60 L280.57,262.33 L279.61,262.04 L279.37,261.92 L278.51,260.76 L275.19,258.42 L271.27,257.19 L270.77,257.31 L270.00,257.85 L268.56,259.62 L268.15,260.55 L269.07,262.41 L270.63,264.75 L270.46,270.45 L269.76,271.47 L270.96,273.27 L272.01,274.34 L272.59,274.24 L275.32,276.25 L275.53,276.60 L275.06,277.91 L274.49,278.27 L272.15,281.04 L271.71,285.17 L272.09,286.36 L275.04,290.66 L275.18,291.37 L274.70,293.65 L278.27,296.42 L280.63,297.30 L280.68,296.86 L281.28,296.63 L282.95,296.95 L282.73,301.39 L281.28,306.48 L279.37,312.37 L283.00,319.05 L284.12,320.80 L284.52,321.01 L284.96,320.94 L285.07,320.77 L285.06,319.97 L286.24,321.02 L286.87,322.00 L287.88,324.17 L287.89,325.66 L288.12,325.78 L288.76,325.06 L290.47,322.03 L291.05,320.74 L291.27,318.25 L291.17,317.26 L290.79,316.81 L290.78,315.93 L291.17,315.04 L292.01,314.69 L292.53,314.78 L293.81,315.93 L293.64,316.84 L294.44,319.68 L295.85,321.59 L298.93,324.33 L299.19,324.34 L300.39,323.59 L304.12,318.96 L305.74,318.86 L309.41,320.16 L311.95,319.51 L312.89,319.60 L313.29,319.79 L314.73,321.50 L314.92,323.05 L315.13,328.66 L314.81,329.29 L314.46,329.58 L314.05,330.55 L313.90,331.86 L314.86,333.20 L315.52,333.86 L315.98,333.96 L316.89,335.02 L318.29,338.44 L318.83,340.08 L317.39,340.20 L317.05,340.58 L316.84,343.35 L317.06,343.57 L317.51,343.30 L318.06,343.32 L318.99,344.55 L315.30,347.06 L313.94,345.33 L308.04,343.49 L308.10,344.27 L308.59,344.68 L308.68,345.25 L308.54,349.04 L308.27,349.57 L307.34,350.43 L305.77,351.09 L300.49,350.66 L299.67,349.43 L299.62,348.71 L298.25,344.90 L296.74,345.75 L296.11,346.69 L294.88,347.48 L292.38,345.72 L290.83,339.42 L290.72,337.57 L290.03,334.43 L288.70,332.70 L288.30,332.41 L287.39,332.28 L284.84,332.97 L284.38,333.28 L284.06,334.48 L282.10,335.18 L277.18,336.20 L275.16,336.01 L269.74,337.51 L267.89,338.77 L267.88,339.76 L267.70,340.18 L266.74,340.59 L263.60,339.40 L260.47,336.79 L260.13,334.15 L260.54,333.89 L260.75,332.89 L258.40,331.26 L256.45,331.25 L252.46,330.02 L250.67,328.98 L250.03,328.94 L243.82,330.66 L243.06,331.21 L242.50,332.04 L241.74,334.37 L241.29,339.98 L241.01,340.60 L240.76,340.79 L235.38,343.40 L232.76,344.38 L228.85,345.08 L228.42,345.94 L227.66,348.22 L221.66,347.10 L220.84,344.33 L218.55,341.51 L217.24,338.03 L218.60,337.21 L218.46,336.51 L211.61,330.93 L207.32,329.46 L205.98,329.12 L204.65,329.35 L204.02,330.51 L204.31,331.97 L204.80,331.96 L204.20,332.05 L203.32,331.45 L203.20,331.05 L203.22,328.30 L204.86,328.20 L205.66,328.29 L206.17,327.76 L206.60,327.00 L207.68,322.99 L208.07,317.22 L208.93,315.11 L206.96,311.24 L205.93,310.49 L204.81,308.18 L204.75,307.20 L205.79,307.07 L208.28,305.92 L210.04,304.59 L204.70,300.32 L203.08,300.34 L203.96,294.07 L202.61,285.70 L202.82,284.60 Z M215.90,287.67 L215.52,288.07 L214.34,288.83 L213.33,289.00 L213.00,288.86 L212.87,288.50 L211.91,288.15 L210.47,288.04 L208.29,289.96 L207.04,291.29 L206.81,291.88 L206.89,292.46 L207.64,293.28 L210.91,291.86 L214.69,289.25 L215.76,288.32 L216.32,286.61 L216.22,286.59 L215.91,287.64 L215.90,287.67 Z"/>
<path class="wa-map__sido wa-map__sido--selected" style="fill:#8a9493;fill-opacity:0.12;stroke:#8a9493" fill-rule="evenodd" clip-rule="evenodd" d="M207.80,383.84 L206.10,381.66 L206.78,382.35 L207.80,383.84 Z M206.10,381.66 L205.82,381.30 L206.10,381.66 Z M205.61,381.01 L205.23,380.26 L205.61,381.01 Z M205.23,380.26 L204.45,378.73 L201.78,371.63 L201.99,371.55 L203.38,375.30 L205.23,380.26 Z M207.80,383.84 L210.39,387.15 L213.00,380.30 L213.30,378.25 L210.94,375.93 L214.14,372.16 L214.72,371.79 L215.78,371.43 L217.44,370.96 L218.27,370.94 L219.05,371.19 L222.81,373.33 L223.59,371.53 L221.90,366.38 L219.99,362.69 L214.97,362.31 L214.83,358.53 L214.96,357.00 L215.13,356.50 L215.42,356.19 L215.55,355.65 L215.41,355.32 L213.13,354.58 L212.58,354.64 L212.55,360.25 L210.32,360.05 L207.94,358.66 L207.60,357.38 L207.70,356.49 L207.14,356.31 L203.44,367.02 L203.59,367.09 L203.64,367.58 L203.36,368.54 L200.75,371.56 L199.75,371.33 L199.14,371.64 L198.79,372.14 L198.45,371.94 L197.61,369.44 L197.83,369.03 L198.45,368.90 L198.83,368.98 L199.23,369.22 L199.66,369.85 L201.01,370.14 L202.60,368.19 L203.20,367.08 L206.97,355.89 L206.37,355.60 L206.00,354.38 L205.92,352.59 L206.32,351.37 L212.83,351.01 L223.57,349.67 L225.78,349.62 L227.12,350.14 L228.02,349.85 L228.77,349.24 L229.25,348.29 L229.63,346.98 L228.93,346.65 L228.19,346.76 L228.54,345.63 L228.85,345.08 L232.76,344.38 L235.38,343.40 L241.01,340.60 L241.29,339.98 L241.56,337.71 L241.74,334.37 L242.50,332.04 L243.26,331.01 L243.82,330.66 L250.34,328.94 L250.67,328.98 L252.46,330.02 L256.45,331.25 L258.40,331.26 L260.75,332.89 L260.54,333.89 L260.13,334.15 L260.47,336.79 L263.60,339.40 L266.74,340.59 L267.70,340.18 L267.88,339.76 L267.89,338.77 L269.74,337.51 L275.16,336.01 L277.18,336.20 L282.10,335.18 L284.06,334.48 L284.38,333.28 L284.84,332.97 L287.39,332.28 L288.30,332.41 L288.70,332.70 L290.03,334.43 L290.72,337.57 L290.83,339.42 L292.38,345.72 L294.88,347.48 L296.11,346.69 L296.74,345.75 L298.25,344.90 L299.62,348.71 L299.67,349.43 L300.49,350.66 L305.77,351.09 L307.34,350.43 L308.27,349.57 L308.54,349.04 L308.68,345.25 L308.59,344.68 L308.10,344.27 L308.04,343.49 L313.94,345.33 L315.30,347.06 L318.99,344.55 L318.06,343.32 L317.51,343.30 L317.06,343.57 L316.84,343.35 L317.05,340.58 L317.39,340.20 L318.83,340.08 L319.57,340.37 L323.97,340.76 L324.58,341.25 L324.68,342.29 L327.91,344.70 L331.08,346.56 L334.92,345.42 L340.10,343.57 L340.53,343.64 L341.32,344.59 L342.96,345.70 L342.81,346.52 L342.84,348.88 L344.64,350.14 L346.34,354.54 L344.12,356.99 L343.55,357.35 L343.56,358.40 L343.85,359.75 L343.36,359.71 L341.56,360.13 L340.38,362.20 L340.47,362.61 L338.80,365.08 L334.00,366.87 L330.47,368.42 L329.02,369.49 L327.11,373.77 L322.69,377.07 L320.64,385.10 L320.03,385.43 L319.34,386.75 L317.09,392.50 L316.35,397.32 L313.56,403.98 L317.67,407.67 L320.17,411.05 L320.29,412.52 L319.03,413.33 L318.68,415.40 L318.78,415.85 L319.65,417.12 L322.07,417.13 L322.46,417.28 L322.59,417.54 L321.21,421.43 L319.11,423.07 L317.84,424.71 L316.10,427.48 L316.31,428.73 L316.68,429.46 L317.16,429.80 L317.44,430.43 L317.17,431.47 L315.55,433.39 L313.60,434.54 L312.77,434.57 L307.36,430.10 L305.07,428.42 L301.98,427.63 L298.37,427.97 L297.04,429.29 L296.24,431.12 L295.57,432.25 L293.92,434.76 L293.12,435.35 L292.63,435.22 L292.17,434.16 L290.00,432.89 L286.57,434.85 L285.18,435.10 L280.10,434.10 L272.63,431.92 L268.28,434.48 L265.72,435.64 L264.60,435.70 L258.64,433.30 L258.27,432.85 L259.22,430.57 L259.52,430.47 L260.31,431.08 L260.91,430.77 L261.07,430.52 L260.87,427.30 L260.29,426.06 L259.78,425.30 L259.52,425.27 L258.89,425.95 L257.90,425.60 L256.72,423.79 L256.68,423.14 L258.17,423.29 L258.71,422.86 L259.01,420.50 L257.62,415.78 L256.40,415.13 L254.44,415.17 L253.81,416.05 L254.01,416.40 L253.96,416.64 L251.49,423.09 L250.16,423.72 L247.33,423.75 L244.06,420.49 L243.61,419.05 L243.66,418.53 L244.29,417.98 L243.44,417.08 L237.99,413.22 L236.00,412.19 L235.45,412.29 L229.83,414.71 L227.59,416.35 L227.25,416.78 L227.65,417.43 L228.42,418.08 L228.66,418.48 L228.71,420.88 L226.52,425.81 L225.62,427.05 L223.24,429.12 L217.58,432.78 L216.17,432.76 L215.77,432.63 L214.02,431.40 L213.14,431.34 L211.56,431.50 L211.17,432.39 L211.19,433.08 L212.00,433.08 L212.06,433.84 L211.52,435.16 L206.35,434.29 L205.89,434.05 L205.31,433.19 L204.49,431.52 L204.67,430.79 L201.42,423.94 L202.02,423.31 L202.26,421.78 L202.14,421.31 L201.01,420.09 L199.94,419.52 L197.70,418.99 L195.86,416.47 L196.85,416.40 L199.20,412.46 L200.58,409.38 L201.37,407.98 L204.97,406.20 L211.40,404.83 L214.77,401.89 L216.01,401.26 L216.75,401.11 L218.32,401.58 L219.87,403.38 L220.04,403.25 L220.28,401.39 L219.55,399.82 L219.23,399.63 L210.87,399.10 L208.00,399.76 L206.18,400.44 L204.09,400.43 L202.06,398.96 L199.23,396.61 L199.85,393.44 L205.99,388.54 L209.08,385.73 L209.01,385.62 L207.80,383.84 Z"/>
<path class="wa-map__sido wa-map__sido--selected" style="fill:#8a9493;fill-opacity:0.12;stroke:#8a9493" fill-rule="evenodd" clip-rule="evenodd" d="M205.67,574.33 L207.44,575.56 L207.79,575.14 L207.53,575.65 L210.19,575.87 L213.96,576.57 L213.92,577.73 L213.45,578.56 L212.05,578.82 L211.51,577.83 L211.22,576.94 L210.72,576.81 L209.63,577.39 L207.51,580.15 L206.16,581.22 L204.32,581.76 L202.63,581.75 L202.11,579.44 L202.13,577.36 L202.31,576.83 L203.83,575.65 L205.67,574.33 Z M218.32,582.75 L217.91,583.15 L217.12,582.52 L215.58,580.74 L215.01,579.01 L215.61,574.05 L216.67,572.41 L216.98,572.20 L219.79,573.73 L220.57,574.50 L220.34,575.02 L219.98,575.25 L218.58,575.38 L219.20,578.76 L220.07,579.74 L218.94,582.02 L218.32,582.75 Z M243.70,578.42 L238.30,578.49 L237.48,576.97 L237.35,575.50 L238.16,573.94 L240.09,571.06 L240.36,570.74 L241.27,570.26 L241.87,570.19 L243.11,570.79 L244.10,571.46 L245.78,573.68 L245.39,575.48 L244.66,577.57 L244.28,578.19 L243.70,578.42 Z M210.81,575.50 L208.44,575.06 L207.80,574.73 L207.34,572.73 L207.24,571.45 L207.40,567.91 L208.07,567.71 L209.71,568.60 L211.38,568.78 L212.54,569.10 L214.14,571.30 L213.51,574.24 L210.81,575.50 L210.81,575.50 Z M260.27,555.28 L260.45,555.13 L260.33,555.29 L260.27,555.28 Z M237.58,554.38 L238.77,554.27 L239.40,553.75 L239.70,553.67 L242.61,554.35 L242.87,554.68 L242.66,555.85 L241.12,558.56 L236.91,560.01 L236.40,559.12 L236.66,558.34 L236.60,558.09 L236.03,556.97 L235.79,556.76 L234.28,556.49 L230.57,556.35 L228.70,555.69 L229.19,555.26 L231.27,554.11 L235.13,553.30 L236.24,552.68 L237.58,554.38 L237.58,554.38 Z M260.27,555.28 L258.95,556.38 L257.65,557.93 L257.79,558.31 L257.53,558.96 L257.25,558.57 L257.05,556.84 L257.97,556.46 L258.51,556.44 L258.83,555.72 L258.78,555.37 L258.51,554.91 L257.81,554.86 L257.09,555.05 L256.90,555.40 L256.61,554.47 L256.25,553.99 L255.24,553.30 L254.08,552.83 L255.05,551.45 L256.36,549.94 L257.44,551.54 L259.97,552.54 L262.31,554.74 L260.29,554.10 L259.66,554.91 L260.19,555.26 L260.27,555.28 Z M229.24,559.19 L230.28,561.39 L229.62,561.46 L227.27,560.88 L224.48,560.51 L221.76,560.71 L219.67,557.84 L218.71,556.77 L217.61,556.01 L216.99,555.78 L216.05,549.51 L216.95,548.36 L217.55,548.12 L221.15,547.33 L221.85,547.53 L222.51,547.54 L225.10,549.58 L225.56,550.21 L225.77,551.42 L225.38,552.09 L225.61,553.44 L226.53,555.33 L228.41,557.87 L229.24,559.19 Z M239.40,548.76 L239.56,546.94 L240.30,546.57 L243.84,547.21 L244.36,548.24 L246.15,548.67 L246.59,548.53 L247.23,547.28 L247.48,545.92 L247.64,545.96 L247.92,546.24 L248.26,546.97 L248.04,551.19 L247.90,551.52 L243.81,553.29 L239.85,551.40 L239.23,550.77 L239.40,548.76 Z M239.44,548.26 L239.34,548.79 L234.18,549.60 L233.51,549.46 L233.11,549.22 L231.95,549.62 L230.92,551.25 L230.51,553.14 L229.20,551.93 L228.06,549.54 L228.10,548.58 L228.98,546.24 L230.25,544.50 L231.39,543.42 L236.26,542.00 L235.17,545.04 L236.83,546.13 L238.58,546.61 L239.40,548.12 L239.44,548.26 Z M302.65,539.69 L305.40,538.93 L308.76,541.80 L308.69,543.44 L308.06,544.68 L304.03,546.20 L303.50,545.93 L301.32,542.71 L300.16,540.24 L299.93,539.08 L300.12,538.38 L300.45,538.16 L301.96,539.59 L302.39,539.68 L302.65,539.69 Z M277.51,538.44 L275.82,542.89 L274.75,543.87 L272.96,543.82 L271.60,543.58 L270.59,543.23 L269.30,543.75 L268.41,543.89 L268.07,544.17 L266.91,543.83 L264.32,542.40 L264.09,541.03 L264.07,538.95 L265.00,538.16 L265.38,537.65 L267.41,538.54 L267.95,538.55 L271.77,536.30 L272.69,536.02 L275.79,535.80 L276.16,535.89 L277.15,536.99 L277.56,538.21 L277.51,538.43 L277.51,538.44 Z M300.66,537.89 L299.81,537.47 L298.78,536.18 L298.05,532.78 L300.05,529.82 L300.64,529.55 L302.03,529.72 L302.33,529.94 L305.53,536.22 L305.46,536.42 L304.52,537.11 L304.16,537.22 L300.66,537.89 Z M334.66,536.82 L332.38,536.51 L329.32,534.27 L326.13,530.35 L329.61,528.58 L331.41,528.78 L333.72,532.69 L334.83,534.85 L335.14,535.78 L334.73,536.81 L334.66,536.82 Z M181.76,525.78 L182.36,526.63 L182.02,527.16 L185.97,529.86 L189.19,533.20 L189.82,534.04 L189.91,537.02 L189.61,537.27 L185.00,546.52 L183.57,546.33 L183.91,545.08 L183.72,544.36 L183.23,543.91 L180.36,545.82 L180.04,547.68 L180.26,547.96 L180.78,548.09 L180.92,547.69 L181.27,547.53 L182.14,549.22 L181.96,550.20 L179.86,551.38 L179.56,551.31 L178.96,550.71 L179.46,548.37 L179.81,548.21 L176.93,548.54 L172.11,551.39 L172.19,551.77 L168.66,553.13 L166.66,552.52 L166.21,552.00 L166.52,551.42 L164.93,551.30 L163.45,551.63 L159.58,544.92 L159.41,544.34 L160.31,542.05 L162.32,539.25 L165.64,537.08 L170.03,532.55 L173.90,529.94 L174.48,530.12 L174.72,529.86 L176.30,526.59 L175.77,526.03 L175.15,526.13 L175.00,524.13 L175.23,523.65 L176.24,523.34 L179.45,524.45 L181.76,525.78 Z M156.01,520.83 L155.54,519.84 L155.68,518.28 L155.89,518.01 L156.32,517.96 L157.74,518.26 L158.26,518.56 L159.10,519.47 L160.16,520.97 L161.31,523.68 L160.17,525.67 L160.53,525.96 L160.98,527.09 L160.96,527.35 L160.68,527.72 L156.22,530.35 L153.58,530.23 L153.15,529.54 L153.15,527.23 L153.64,526.51 L154.34,526.05 L154.96,526.02 L155.42,526.10 L156.93,526.78 L158.36,525.07 L159.16,523.68 L157.58,522.43 L156.01,520.83 Z M155.54,519.84 L155.62,520.43 L156.01,520.83 L156.32,521.49 L157.14,523.82 L156.87,524.75 L156.23,525.68 L153.05,526.15 L152.45,526.12 L152.28,523.78 L152.40,517.25 L153.70,517.38 L154.65,517.94 L155.54,519.84 Z M166.90,513.20 L171.16,516.64 L170.51,517.80 L163.86,520.16 L163.11,519.88 L163.13,518.83 L163.57,517.84 L163.19,516.29 L163.15,516.54 L162.71,516.50 L161.80,516.05 L161.94,515.69 L162.66,515.17 L166.90,513.20 Z M91.86,509.33 L93.59,509.60 L94.80,509.01 L95.35,509.03 L95.54,509.26 L95.61,509.82 L95.24,509.85 L95.27,510.13 L94.97,510.58 L94.66,510.33 L94.78,510.09 L94.59,509.93 L94.22,509.99 L93.52,510.52 L93.63,511.40 L93.31,512.50 L92.51,513.23 L91.77,513.19 L90.09,515.18 L89.78,515.99 L89.78,516.48 L90.06,517.49 L88.38,516.78 L87.33,515.09 L88.04,514.80 L88.67,514.83 L88.84,514.48 L88.66,513.99 L88.48,514.03 L88.39,514.25 L88.11,514.11 L87.77,513.85 L87.58,513.38 L87.80,512.95 L88.68,512.83 L88.73,512.43 L88.52,511.93 L88.74,511.27 L89.74,509.25 L90.29,508.50 L90.63,508.31 L91.86,509.33 Z M334.35,508.34 L334.77,509.94 L334.55,510.36 L334.28,510.40 L333.21,510.02 L333.38,509.56 L333.70,509.33 L333.48,508.81 L332.19,508.94 L331.50,509.83 L333.98,513.86 L334.18,514.04 L334.71,514.03 L335.50,515.99 L335.12,518.99 L335.31,522.14 L335.97,522.53 L336.54,523.16 L336.32,523.98 L335.81,524.41 L334.67,524.63 L331.16,523.54 L327.43,521.04 L326.65,520.09 L327.61,516.14 L327.87,515.81 L328.41,515.78 L329.24,515.23 L330.05,514.46 L330.37,514.10 L330.97,512.57 L331.21,509.35 L330.79,508.61 L330.21,508.42 L329.20,506.62 L329.20,506.42 L329.52,506.10 L331.17,506.40 L333.52,507.67 L334.35,508.34 Z M148.26,506.50 L148.82,506.60 L148.93,506.41 L149.80,506.78 L150.02,507.45 L149.79,507.76 L150.71,508.83 L151.32,508.93 L152.13,508.83 L152.12,509.46 L151.73,510.67 L151.46,511.08 L151.00,511.10 L149.44,511.82 L148.47,512.69 L148.59,513.61 L148.44,513.81 L148.04,514.23 L147.28,514.30 L147.07,514.46 L146.52,514.47 L145.89,514.27 L146.01,513.44 L146.28,513.02 L146.03,512.54 L145.49,512.57 L145.30,512.84 L145.31,512.98 L145.50,512.97 L145.41,513.14 L144.53,513.38 L142.51,512.61 L142.08,511.75 L141.86,510.60 L142.09,507.69 L145.21,506.81 L147.01,504.57 L148.26,506.50 Z M161.59,501.07 L166.25,502.31 L167.37,502.23 L168.47,503.04 L169.55,506.51 L169.02,508.65 L168.67,509.34 L167.83,509.43 L165.75,509.16 L166.16,508.06 L166.14,507.65 L165.36,505.94 L164.88,505.84 L161.97,506.64 L159.38,507.18 L158.02,504.87 L158.11,504.12 L158.95,501.36 L160.02,500.03 L161.54,501.05 L161.59,501.07 Z M187.42,499.20 L189.43,500.92 L187.82,504.09 L187.13,503.71 L186.81,503.39 L186.82,501.97 L187.00,500.74 L187.56,500.72 L187.31,499.33 L187.34,499.08 L187.42,499.19 L187.42,499.20 Z M150.98,498.04 L150.83,500.83 L150.67,501.51 L146.89,503.22 L145.48,504.77 L144.64,506.29 L144.21,506.58 L142.29,506.96 L141.03,506.39 L139.58,504.81 L139.54,503.19 L139.50,500.73 L140.61,499.05 L141.22,499.05 L141.40,499.48 L141.75,499.60 L143.53,499.66 L144.45,499.51 L147.16,498.31 L147.75,497.50 L150.26,495.88 L150.63,496.16 L150.98,498.04 L150.98,498.04 Z M164.52,487.52 L165.36,487.55 L165.51,487.21 L165.42,486.91 L165.72,486.84 L167.15,488.72 L167.22,489.22 L166.41,491.66 L163.09,496.88 L161.32,497.35 L160.72,497.27 L155.79,494.89 L155.46,494.35 L155.37,493.60 L155.90,493.33 L156.96,494.12 L157.74,495.20 L158.24,495.19 L159.16,494.50 L158.76,493.30 L157.26,491.34 L157.12,490.90 L157.27,490.68 L162.23,488.40 L162.83,486.60 L164.51,487.52 L164.52,487.52 Z M183.70,483.94 L184.03,483.80 L184.06,483.49 L184.38,483.29 L185.59,483.64 L187.02,484.94 L187.12,485.87 L186.88,486.37 L186.79,485.72 L186.48,485.46 L184.54,485.79 L183.14,487.35 L183.30,488.93 L183.86,489.43 L184.28,489.56 L185.17,489.50 L185.68,489.22 L187.70,489.47 L188.57,490.21 L189.09,491.37 L189.23,493.17 L188.69,494.08 L187.34,495.35 L186.84,495.52 L185.16,494.94 L184.62,494.52 L184.63,494.14 L185.58,493.01 L186.21,493.13 L186.47,492.82 L186.32,492.04 L184.76,490.84 L179.38,490.20 L178.25,491.94 L177.98,492.13 L177.18,492.12 L174.26,491.16 L174.16,490.95 L174.17,490.24 L174.85,489.42 L176.11,489.80 L177.67,489.89 L179.69,489.25 L182.18,486.32 L182.13,485.89 L181.41,484.72 L180.94,484.54 L179.88,483.48 L180.25,482.87 L181.51,481.98 L181.81,482.01 L182.29,482.99 L183.21,483.76 L183.70,483.94 L183.70,483.94 Z M160.82,487.37 L159.25,488.84 L157.72,489.76 L154.98,490.53 L154.37,489.57 L153.40,488.67 L152.91,488.55 L149.82,488.59 L149.69,487.43 L151.95,484.61 L153.45,483.46 L156.21,483.09 L156.82,482.77 L157.44,481.74 L156.98,479.57 L158.17,479.83 L159.23,480.52 L161.23,485.76 L161.02,486.98 L160.82,487.37 Z M329.99,481.12 L330.97,481.44 L332.04,481.48 L334.02,483.48 L334.01,487.09 L333.15,487.07 L325.84,483.78 L325.76,481.77 L328.45,479.00 L328.64,479.05 L329.09,480.82 L329.99,481.12 Z M168.28,475.92 L165.17,476.34 L166.13,473.51 L165.87,472.97 L164.94,471.88 L164.95,468.71 L166.96,469.27 L168.12,470.35 L169.51,472.55 L169.57,475.39 L168.28,475.92 Z M187.98,463.83 L186.77,462.94 L186.25,462.10 L187.98,463.83 Z M168.30,454.09 L165.91,455.16 L164.60,455.04 L164.34,455.14 L163.48,457.61 L163.58,459.72 L164.01,461.07 L163.95,462.44 L161.74,466.04 L161.18,466.03 L159.92,465.09 L158.96,463.37 L156.35,461.82 L158.59,459.13 L159.20,458.94 L160.47,458.03 L162.64,455.79 L163.57,454.55 L167.12,453.78 L167.76,453.80 L168.30,453.95 L168.31,454.09 L168.30,454.09 Z M186.25,462.10 L185.38,461.30 L184.71,461.18 L184.05,461.29 L183.79,461.49 L183.20,464.91 L181.66,465.45 L181.22,464.83 L180.31,464.52 L178.06,465.58 L178.05,466.03 L178.39,466.95 L179.40,467.49 L179.45,467.96 L177.88,469.90 L176.67,470.26 L174.85,470.01 L174.59,469.72 L174.54,469.33 L174.85,467.68 L175.43,466.67 L175.20,465.60 L174.16,464.98 L171.74,464.31 L170.06,464.75 L167.93,463.79 L167.74,463.13 L167.53,460.96 L167.78,459.80 L168.70,459.15 L170.96,458.12 L173.78,458.91 L176.56,458.34 L176.56,457.91 L177.79,454.75 L178.39,454.15 L179.62,453.46 L180.04,455.36 L183.21,456.37 L184.30,456.44 L185.34,454.79 L185.39,454.56 L185.15,454.24 L185.31,453.65 L186.88,452.96 L186.77,454.80 L186.12,457.07 L185.19,458.73 L185.41,460.71 L186.25,462.10 Z M330.42,481.26 L329.95,481.09 L329.61,480.34 L329.43,479.35 L329.65,478.92 L330.84,478.24 L330.63,477.72 L328.54,478.60 L325.47,481.47 L325.13,482.65 L324.68,483.36 L322.62,484.89 L322.08,484.43 L322.39,485.06 L319.15,487.46 L315.90,482.66 L315.01,482.18 L313.11,482.70 L312.92,483.10 L312.99,483.40 L313.05,483.12 L314.16,483.12 L316.51,486.10 L316.52,486.40 L314.14,488.28 L314.05,488.60 L315.69,491.37 L318.84,494.39 L322.34,493.26 L325.24,490.51 L331.77,489.95 L332.84,490.20 L333.19,490.88 L333.07,493.20 L330.04,500.68 L330.08,501.01 L330.98,502.61 L331.08,505.13 L327.59,507.09 L325.84,507.78 L325.25,507.71 L323.17,505.88 L322.60,505.14 L322.68,504.63 L321.56,503.26 L321.17,503.40 L316.54,509.54 L317.52,511.89 L318.39,512.42 L319.34,518.17 L318.70,519.26 L317.30,517.88 L316.54,517.32 L314.10,516.34 L313.40,516.30 L310.38,515.49 L310.13,514.73 L309.85,508.73 L311.80,506.85 L312.91,506.28 L314.34,504.06 L314.08,503.09 L310.99,497.36 L310.42,496.79 L309.63,496.62 L306.44,488.62 L304.12,488.50 L304.03,489.49 L302.23,492.45 L294.69,494.77 L294.19,494.75 L293.62,494.36 L293.27,493.72 L292.75,493.34 L289.99,492.85 L289.84,492.98 L289.91,493.29 L293.66,495.69 L294.11,498.30 L293.09,501.03 L291.82,505.16 L292.42,506.86 L293.46,508.54 L294.36,509.52 L299.36,514.35 L301.84,514.72 L303.58,516.40 L304.02,517.29 L305.52,522.60 L305.45,523.42 L303.43,525.52 L303.07,525.61 L299.17,525.65 L298.02,524.91 L295.82,523.96 L294.66,524.07 L294.10,524.42 L293.95,525.07 L294.20,527.80 L295.23,528.16 L297.76,528.26 L297.85,529.83 L297.27,532.59 L294.61,534.63 L291.16,537.02 L290.68,536.38 L290.36,536.20 L288.41,536.77 L286.57,538.98 L286.48,540.11 L287.17,540.17 L288.10,540.57 L288.40,541.50 L288.16,542.00 L287.12,542.47 L286.36,542.40 L285.46,541.39 L282.49,536.30 L282.57,535.54 L282.36,534.95 L279.66,532.61 L273.55,531.23 L271.42,531.64 L268.53,532.61 L267.39,532.14 L266.34,531.50 L265.06,529.16 L265.19,527.72 L268.12,523.90 L268.89,523.31 L270.08,523.92 L270.49,523.85 L271.06,523.42 L271.19,519.91 L272.92,517.34 L274.14,516.70 L276.88,515.94 L277.81,511.20 L278.10,510.54 L279.40,509.26 L281.78,508.14 L282.06,508.49 L282.93,510.73 L282.25,511.95 L281.97,513.04 L282.00,513.48 L282.19,513.75 L283.09,514.40 L285.77,514.75 L286.25,514.11 L287.94,509.26 L287.10,503.93 L285.97,503.73 L285.33,503.83 L284.71,504.13 L284.00,505.02 L283.76,506.01 L283.21,506.27 L280.65,506.37 L280.20,506.19 L279.43,505.11 L279.44,504.36 L278.55,502.92 L278.36,502.84 L277.13,503.10 L275.04,505.56 L275.10,506.70 L274.65,507.97 L272.46,510.97 L271.73,511.31 L269.73,511.30 L268.21,511.13 L267.49,510.21 L264.84,512.05 L259.51,516.51 L255.44,519.37 L252.60,524.87 L250.99,533.41 L250.83,536.49 L251.00,536.51 L251.18,537.30 L251.08,538.45 L247.88,540.43 L244.91,540.86 L240.20,540.91 L239.73,542.64 L234.57,541.32 L231.93,539.02 L231.68,534.58 L232.13,527.07 L230.69,520.89 L230.56,520.88 L230.03,521.99 L229.26,527.10 L228.81,535.20 L227.37,538.40 L225.44,541.34 L219.68,544.96 L218.71,543.95 L217.30,544.41 L213.85,547.21 L213.19,548.99 L213.96,550.35 L214.10,550.90 L214.09,552.39 L210.35,557.19 L204.17,560.59 L203.81,560.50 L203.42,559.78 L203.28,558.98 L203.23,557.03 L203.83,556.58 L204.43,555.34 L203.74,552.05 L202.78,551.50 L202.36,551.43 L201.91,551.55 L199.12,553.59 L198.70,553.49 L198.05,551.83 L199.15,549.13 L201.59,546.48 L202.26,546.50 L203.49,545.40 L203.20,542.89 L202.51,542.10 L200.09,542.95 L197.80,536.94 L198.91,533.84 L197.83,530.69 L194.63,527.75 L193.67,527.85 L184.69,525.62 L182.34,524.40 L179.71,521.89 L179.63,518.28 L177.64,516.46 L177.47,510.47 L180.21,502.37 L181.23,501.84 L181.52,501.87 L184.29,504.37 L185.63,507.41 L186.39,509.67 L187.19,510.48 L187.98,510.37 L188.64,509.83 L190.35,507.24 L190.79,505.87 L187.84,504.45 L188.38,503.31 L189.77,501.58 L190.10,499.84 L188.73,499.63 L186.83,497.68 L190.84,492.69 L191.63,488.85 L191.04,486.81 L190.92,478.93 L191.15,478.03 L191.30,477.95 L190.87,476.35 L189.54,472.50 L189.39,472.43 L188.95,472.92 L188.39,475.84 L188.68,481.09 L188.77,481.48 L188.96,481.67 L188.41,482.31 L186.25,482.91 L184.92,482.71 L183.63,480.84 L181.44,476.55 L181.76,475.46 L182.73,474.00 L183.36,473.73 L184.74,476.42 L185.02,476.42 L186.30,475.80 L187.92,474.30 L188.05,473.99 L187.95,473.46 L187.27,473.04 L186.18,472.65 L185.67,472.92 L185.50,473.40 L185.33,473.10 L186.85,471.97 L191.28,469.36 L191.26,468.14 L190.45,466.33 L187.98,463.83 L188.96,464.56 L191.33,467.03 L192.62,469.03 L195.04,469.04 L198.19,463.26 L199.03,460.03 L198.76,459.75 L197.06,459.23 L196.50,459.39 L194.60,459.09 L188.98,451.39 L188.02,449.62 L189.14,449.16 L189.69,448.71 L190.37,446.40 L190.16,446.00 L187.90,447.57 L186.04,448.00 L182.30,445.80 L182.24,444.56 L182.41,443.41 L183.20,441.06 L185.36,437.56 L186.45,436.73 L187.38,436.61 L187.56,436.69 L187.80,437.13 L189.46,436.97 L190.50,431.60 L191.43,428.43 L192.46,426.44 L193.09,426.46 L195.55,427.59 L193.60,424.92 L193.08,422.08 L193.51,420.49 L195.01,419.21 L196.79,418.93 L197.70,418.99 L199.94,419.52 L201.01,420.09 L202.05,421.16 L202.26,421.64 L202.02,423.31 L201.42,423.94 L204.67,430.79 L204.49,431.52 L205.31,433.19 L205.89,434.05 L206.35,434.29 L211.52,435.16 L212.06,433.84 L212.00,433.08 L211.19,433.08 L211.17,432.39 L211.56,431.50 L213.14,431.34 L214.02,431.40 L215.77,432.63 L216.17,432.76 L217.58,432.78 L223.24,429.12 L225.62,427.05 L226.52,425.81 L228.71,420.88 L228.66,418.48 L228.42,418.08 L227.65,417.43 L227.25,416.78 L227.59,416.35 L229.83,414.71 L235.45,412.29 L236.00,412.19 L237.99,413.22 L243.44,417.08 L244.29,417.98 L243.66,418.53 L243.61,419.05 L244.06,420.49 L247.33,423.75 L250.16,423.72 L251.49,423.09 L253.96,416.64 L254.01,416.40 L253.81,416.05 L254.44,415.17 L256.40,415.13 L257.62,415.78 L259.01,420.50 L258.71,422.86 L258.17,423.29 L256.68,423.14 L256.72,423.79 L257.90,425.60 L258.89,425.95 L259.52,425.27 L259.78,425.30 L260.29,426.06 L260.87,427.30 L261.07,430.52 L260.91,430.77 L260.31,431.08 L259.52,430.47 L259.22,430.57 L258.27,432.85 L258.64,433.30 L264.60,435.70 L265.72,435.64 L268.28,434.48 L272.63,431.92 L280.10,434.10 L285.18,435.10 L286.57,434.85 L290.00,432.89 L292.17,434.16 L292.63,435.22 L293.12,435.35 L293.92,434.76 L295.57,432.25 L296.24,431.12 L297.04,429.29 L298.37,427.97 L301.98,427.63 L304.87,428.31 L307.36,430.10 L312.77,434.57 L312.63,434.92 L312.76,436.28 L314.63,439.64 L316.02,440.38 L317.03,443.71 L317.24,445.05 L317.20,446.55 L316.82,446.93 L316.93,449.25 L317.60,450.29 L320.03,453.04 L321.17,453.27 L322.82,454.66 L324.15,456.18 L324.76,457.44 L324.79,459.77 L325.04,460.33 L331.31,466.12 L332.56,467.82 L334.06,470.43 L334.22,471.61 L333.57,474.25 L331.44,477.11 L332.29,478.72 L332.38,481.21 L332.05,481.24 L330.42,481.26 Z M236.30,465.07 L238.95,463.05 L239.39,462.98 L243.96,462.70 L246.80,463.35 L247.29,463.61 L248.31,463.82 L248.80,463.76 L251.57,461.45 L254.56,457.46 L256.06,451.57 L255.97,451.36 L254.50,449.84 L253.79,449.39 L253.42,449.38 L250.91,450.41 L248.90,444.91 L246.62,441.44 L245.12,440.71 L244.12,440.72 L241.44,441.82 L233.94,445.61 L232.91,445.41 L229.35,443.62 L229.23,442.20 L229.37,440.54 L229.13,440.58 L227.00,441.37 L226.26,442.40 L225.21,444.48 L218.72,448.54 L218.05,454.23 L218.13,457.66 L218.60,458.49 L219.93,459.64 L222.81,459.30 L226.26,459.11 L227.00,459.33 L227.43,459.59 L229.38,461.41 L229.70,462.31 L230.03,463.53 L229.36,464.20 L228.85,464.22 L228.51,464.49 L228.46,464.67 L228.82,465.48 L230.67,466.19 L233.99,466.42 L235.14,466.21 L236.30,465.07 Z M191.15,505.54 L191.04,506.58 L198.30,508.62 L199.05,507.64 L198.72,507.49 L198.10,507.54 L195.82,507.06 L194.17,506.53 L191.36,504.82 L191.15,505.54 Z"/>
<path class="wa-map__sido wa-map__sido--selected" style="fill:#8a9493;fill-opacity:0.12;stroke:#8a9493" fill-rule="evenodd" clip-rule="evenodd" d="M491.61,206.97 L491.73,208.51 L492.28,209.93 L496.26,215.11 L495.81,215.99 L495.43,218.80 L496.81,229.55 L496.47,232.32 L496.32,232.66 L496.36,235.94 L496.87,238.54 L497.82,240.98 L499.55,243.09 L500.73,245.23 L502.97,250.99 L502.74,251.52 L502.12,252.00 L501.97,252.29 L502.90,259.40 L502.83,259.68 L501.83,261.21 L499.60,262.65 L499.16,263.17 L497.51,266.84 L496.70,269.27 L496.58,272.63 L496.80,273.73 L497.32,274.90 L497.91,275.76 L499.64,279.77 L500.60,283.67 L499.65,288.67 L499.61,293.57 L499.04,295.48 L497.16,298.14 L496.97,298.11 L496.80,298.33 L494.40,304.18 L494.11,305.42 L493.92,313.20 L494.57,317.81 L493.89,320.85 L496.40,326.65 L496.17,329.13 L496.48,329.95 L499.12,332.34 L500.00,332.86 L500.60,332.85 L499.44,335.10 L497.87,337.59 L496.85,338.38 L495.19,338.86 L494.12,340.55 L496.21,345.20 L500.73,347.34 L502.10,347.67 L502.68,347.44 L502.88,346.86 L510.35,338.98 L511.53,336.94 L511.50,336.38 L511.68,335.83 L512.41,335.76 L513.61,336.52 L514.02,337.20 L514.56,338.58 L515.20,340.92 L514.90,344.94 L513.85,346.75 L512.50,349.85 L511.93,352.17 L509.72,354.72 L509.98,357.94 L509.42,365.31 L507.98,370.46 L506.82,372.93 L507.12,375.15 L506.43,380.17 L505.46,385.15 L505.06,386.36 L503.30,388.34 L502.91,390.03 L502.09,389.60 L494.05,386.77 L493.30,386.69 L492.64,386.95 L491.51,387.99 L490.51,389.31 L487.33,391.12 L483.67,389.95 L483.16,389.24 L483.07,388.50 L483.56,387.76 L483.81,385.41 L483.20,384.23 L479.23,382.74 L477.16,382.45 L473.14,382.29 L472.18,381.58 L471.05,381.95 L466.36,384.26 L465.31,385.13 L464.26,386.83 L464.00,388.21 L464.04,389.37 L457.87,394.28 L457.30,395.05 L455.96,396.08 L455.24,396.03 L453.37,395.09 L453.35,394.69 L452.30,393.51 L451.27,392.92 L448.61,392.26 L445.81,393.74 L440.88,398.23 L435.58,401.62 L432.79,401.58 L428.28,400.26 L425.58,398.24 L422.29,397.93 L421.47,398.46 L420.40,399.59 L416.98,400.21 L415.13,399.43 L413.97,398.64 L410.19,394.78 L409.13,388.66 L409.57,386.87 L409.61,385.78 L409.54,384.49 L409.19,383.78 L412.72,381.11 L414.49,380.49 L417.73,380.48 L417.88,380.68 L418.00,381.49 L417.78,382.47 L417.92,384.00 L418.53,384.88 L420.93,384.36 L424.94,382.52 L425.81,381.04 L426.13,378.23 L424.71,374.84 L424.75,374.01 L427.62,369.03 L429.99,366.27 L430.35,366.29 L431.58,365.50 L432.48,364.42 L432.60,361.75 L432.23,359.45 L429.69,348.46 L428.93,347.39 L428.50,347.04 L427.81,346.75 L426.30,346.44 L425.87,346.19 L425.60,345.57 L426.87,340.26 L427.49,338.45 L429.47,336.06 L430.52,335.03 L432.82,335.27 L435.33,336.91 L436.48,336.93 L437.33,336.57 L439.46,334.96 L445.34,329.71 L445.70,327.67 L445.69,326.71 L445.22,325.07 L444.15,322.84 L443.17,322.07 L440.38,320.81 L438.65,320.50 L436.78,321.54 L436.28,322.28 L436.38,322.41 L436.16,323.07 L435.66,323.95 L435.45,323.97 L433.47,323.48 L431.75,322.51 L426.78,323.10 L426.40,323.04 L425.54,322.67 L425.73,321.98 L424.03,321.12 L421.82,320.33 L420.58,320.97 L419.53,319.53 L419.83,315.85 L419.38,315.36 L418.12,314.69 L408.08,310.71 L406.31,310.26 L405.22,310.29 L404.03,309.80 L402.89,309.23 L400.92,307.38 L400.70,307.38 L397.55,310.92 L396.92,312.94 L397.38,317.54 L399.42,320.25 L401.02,320.22 L403.25,319.14 L404.25,319.42 L409.44,323.76 L411.50,325.95 L411.07,327.48 L410.66,327.56 L410.50,328.87 L411.93,333.10 L412.49,338.38 L412.35,339.31 L412.88,340.38 L413.22,340.47 L415.46,340.13 L415.77,339.63 L415.67,339.20 L415.79,338.62 L418.55,337.90 L418.80,337.94 L419.17,338.36 L419.31,339.59 L418.57,346.97 L416.47,349.50 L415.14,350.54 L410.71,351.87 L409.50,353.54 L409.62,355.68 L408.89,357.58 L406.72,360.91 L405.76,361.85 L403.62,361.22 L402.85,360.51 L402.80,359.74 L402.94,359.18 L403.34,358.73 L403.46,358.36 L403.69,356.24 L403.28,355.88 L401.43,355.18 L398.49,357.09 L395.89,360.61 L394.43,364.89 L394.38,366.49 L394.69,366.67 L396.58,366.58 L397.91,366.70 L401.12,367.19 L403.03,368.19 L404.31,369.22 L404.50,370.41 L404.48,371.03 L403.59,372.09 L403.24,372.24 L400.26,372.26 L400.25,371.85 L398.21,371.86 L396.93,373.14 L394.48,378.03 L394.48,378.26 L395.28,379.48 L397.90,381.04 L399.42,382.27 L399.75,383.62 L399.66,384.58 L399.48,384.85 L398.48,385.81 L397.47,386.00 L392.04,384.45 L391.68,384.62 L391.33,385.03 L391.31,385.85 L391.49,386.66 L391.90,387.75 L392.42,388.56 L393.70,389.88 L395.59,391.39 L396.29,392.27 L396.49,393.49 L396.43,393.86 L395.14,395.71 L393.45,396.61 L392.02,393.32 L391.42,392.43 L391.12,392.20 L386.73,391.11 L385.87,391.06 L379.00,393.17 L377.38,393.02 L372.05,391.43 L371.83,391.06 L371.88,389.90 L372.26,389.04 L372.55,388.90 L373.69,388.99 L376.42,387.65 L376.10,383.27 L375.64,381.55 L374.79,379.22 L370.67,375.22 L369.51,375.21 L368.80,374.63 L367.91,372.83 L367.91,371.80 L368.17,370.84 L368.02,370.48 L367.64,370.17 L362.60,368.17 L362.34,368.38 L356.67,369.71 L355.23,368.73 L354.16,366.87 L348.75,365.35 L348.44,363.58 L347.27,361.99 L344.72,362.58 L343.93,361.81 L343.56,360.55 L343.85,359.75 L343.56,358.40 L343.55,357.35 L344.12,356.99 L346.34,354.54 L344.64,350.14 L342.84,348.88 L342.81,346.52 L342.96,345.70 L343.77,344.03 L347.06,341.76 L347.37,341.75 L348.13,342.16 L351.53,338.91 L352.97,333.18 L354.02,332.52 L354.22,331.94 L354.40,329.61 L352.85,325.12 L353.08,323.80 L355.17,322.63 L356.39,322.44 L356.99,322.47 L357.72,322.72 L359.22,320.77 L359.33,317.06 L359.26,316.16 L356.29,314.57 L353.64,315.74 L353.04,316.43 L349.49,315.28 L345.73,312.25 L344.15,312.50 L342.95,314.23 L340.28,314.23 L339.26,309.94 L340.37,307.49 L343.27,305.55 L344.21,304.12 L344.25,303.73 L343.53,301.21 L342.67,299.89 L343.16,289.44 L343.68,287.14 L343.93,287.13 L344.82,286.46 L345.52,285.76 L345.69,285.40 L345.29,282.77 L341.05,277.82 L340.24,277.43 L337.44,277.47 L335.47,276.17 L334.82,275.54 L334.59,274.45 L334.82,273.60 L337.06,272.54 L338.75,272.68 L340.39,271.58 L341.04,269.43 L342.37,266.98 L342.93,266.76 L343.47,268.50 L344.72,270.49 L347.01,273.67 L347.64,273.44 L348.25,271.47 L348.76,268.15 L348.65,267.21 L347.94,265.25 L345.83,263.92 L344.13,263.56 L343.62,263.98 L342.96,264.03 L342.69,263.91 L342.43,263.55 L344.35,262.08 L347.62,262.57 L347.86,262.50 L349.25,260.50 L350.10,258.79 L352.22,257.99 L352.97,258.81 L353.65,259.15 L359.95,260.33 L362.03,260.33 L362.26,259.81 L361.78,258.52 L360.17,256.92 L358.18,255.39 L358.18,254.44 L359.10,252.79 L360.25,249.89 L360.41,248.09 L360.83,246.81 L361.33,246.67 L361.64,246.76 L362.63,247.47 L363.46,248.31 L368.30,245.26 L375.64,247.20 L376.46,247.25 L376.59,247.09 L376.65,246.33 L376.20,243.87 L378.95,239.75 L383.13,241.73 L383.80,243.23 L384.47,244.28 L386.53,246.07 L390.65,247.61 L392.27,247.66 L397.05,247.10 L397.50,246.66 L399.80,242.59 L399.79,240.71 L399.68,240.53 L398.56,239.40 L398.03,239.16 L397.50,239.16 L397.26,239.04 L397.29,238.84 L397.90,237.04 L399.29,233.90 L401.12,230.63 L402.90,228.85 L408.26,224.77 L410.17,223.75 L411.79,221.53 L411.92,220.78 L411.35,220.29 L411.19,219.70 L411.48,219.26 L412.98,218.06 L415.36,217.39 L419.06,216.01 L419.79,215.28 L422.15,216.07 L425.87,218.04 L429.99,219.83 L430.82,218.78 L431.26,215.06 L431.87,212.37 L432.53,211.76 L437.45,213.43 L438.13,214.97 L439.24,216.74 L441.40,217.40 L443.47,216.96 L444.25,216.34 L445.55,214.84 L446.21,213.09 L449.81,212.44 L454.10,212.83 L458.13,213.40 L461.01,213.03 L461.47,211.84 L461.84,211.49 L464.02,210.28 L464.57,210.43 L467.05,211.77 L471.03,214.28 L472.52,216.01 L472.99,216.83 L472.99,217.06 L477.75,217.04 L477.61,215.03 L477.18,213.58 L477.26,213.17 L481.51,207.91 L481.97,207.70 L483.81,207.86 L488.22,204.26 L490.55,204.12 L491.25,205.24 L491.61,206.97 Z M739.90,184.04 L739.86,184.15 L740.00,184.17 L739.88,184.40 L739.69,184.28 L739.90,184.01 L739.90,184.04 Z M739.40,184.19 L739.19,184.13 L739.38,183.68 L739.55,183.99 L739.43,184.15 L739.40,184.19 Z M642.23,158.84 L639.14,161.01 L633.48,159.35 L632.45,158.05 L631.84,154.53 L632.35,153.76 L639.38,150.54 L642.46,149.65 L642.75,149.85 L643.80,154.05 L643.94,157.30 L642.23,158.84 Z"/>
<path class="wa-map__sido wa-map__sido--selected" style="fill:#8a9493;fill-opacity:0.12;stroke:#8a9493" fill-rule="evenodd" clip-rule="evenodd" d="M424.04,504.43 L424.23,504.44 L424.04,504.43 Z M391.12,494.97 L391.12,494.97 L391.12,494.97 L391.12,494.97 Z M358.13,489.84 L358.66,489.55 L358.77,489.35 L358.45,488.92 L358.34,487.71 L359.23,486.25 L359.90,485.54 L361.00,486.02 L362.71,488.02 L364.90,493.27 L364.86,494.12 L364.37,494.18 L360.47,492.78 L357.61,493.02 L356.24,493.30 L355.01,493.26 L353.03,492.40 L352.20,489.88 L352.25,489.13 L356.40,483.44 L359.27,482.60 L359.47,482.82 L359.48,483.24 L358.82,484.80 L357.67,486.29 L357.13,488.49 L357.15,489.34 L357.34,489.57 L358.13,489.84 Z M339.11,481.95 L338.52,481.71 L338.91,480.48 L339.10,480.62 L339.13,481.94 L339.11,481.95 Z M351.44,497.17 L352.03,497.10 L352.66,496.71 L353.97,495.19 L354.29,494.53 L355.11,493.76 L356.02,493.67 L359.41,493.88 L361.44,494.70 L362.65,495.40 L362.79,495.59 L362.65,496.55 L362.48,497.04 L361.90,497.49 L361.56,499.49 L362.12,503.69 L362.01,504.50 L360.50,505.48 L359.85,506.32 L359.72,507.23 L359.79,507.50 L360.15,507.79 L361.24,508.35 L361.72,508.32 L362.45,508.99 L360.80,509.91 L358.21,509.87 L358.39,509.07 L358.92,507.91 L358.40,507.38 L357.81,507.20 L354.74,507.80 L354.55,508.03 L354.82,508.61 L354.50,509.10 L351.82,509.05 L351.40,508.36 L350.49,504.48 L350.90,502.06 L351.53,501.19 L351.30,500.74 L351.00,500.59 L350.43,500.53 L348.77,500.85 L346.89,501.69 L346.36,502.07 L346.22,502.37 L346.92,504.79 L347.29,505.23 L347.23,505.74 L346.58,506.80 L345.05,507.56 L342.71,506.89 L342.02,506.45 L339.55,503.12 L341.04,501.68 L340.46,499.96 L338.53,495.90 L337.92,495.26 L337.00,493.63 L336.47,491.18 L336.77,490.18 L338.45,488.61 L339.03,486.59 L341.37,481.95 L342.85,480.16 L344.95,479.55 L347.05,480.36 L348.01,481.04 L348.85,483.46 L347.97,486.33 L346.01,487.36 L345.71,488.95 L347.68,493.32 L350.39,496.54 L351.42,497.17 L351.44,497.17 Z M353.18,475.61 L354.07,476.78 L354.66,477.04 L354.90,476.72 L354.77,476.27 L355.58,476.53 L355.54,476.78 L355.25,476.99 L354.27,477.46 L353.34,477.19 L352.50,476.55 L352.36,475.39 L353.18,475.61 Z M424.04,504.43 L420.66,505.09 L419.93,505.81 L420.09,506.18 L421.06,507.27 L421.60,507.41 L422.18,507.82 L422.19,508.06 L421.82,508.73 L415.52,509.43 L415.33,499.96 L416.15,497.55 L417.10,493.69 L416.55,491.45 L415.46,490.65 L414.86,490.59 L410.22,493.81 L410.37,494.70 L409.21,496.35 L408.60,496.26 L405.52,492.15 L405.22,491.33 L404.56,488.35 L405.00,486.98 L409.08,483.57 L411.28,482.62 L411.86,483.54 L412.34,483.97 L414.14,484.99 L414.86,484.98 L415.18,484.72 L415.06,483.70 L415.42,483.11 L416.39,483.05 L420.07,485.58 L416.14,479.51 L416.18,479.03 L417.38,476.54 L418.17,476.12 L421.87,477.50 L422.61,477.65 L422.81,477.11 L422.59,476.12 L422.68,474.96 L425.11,467.29 L425.49,467.23 L427.65,468.34 L428.89,471.44 L428.58,471.11 L428.22,471.20 L427.06,472.68 L427.27,475.13 L427.49,475.72 L429.32,477.41 L430.12,478.54 L430.16,479.98 L429.66,481.98 L428.59,484.84 L427.58,486.23 L427.45,487.31 L427.68,487.85 L428.94,488.58 L429.54,487.79 L429.65,487.21 L430.43,486.05 L431.08,485.91 L432.69,486.27 L432.43,488.60 L431.56,491.73 L430.54,491.97 L430.07,491.01 L429.76,490.96 L428.27,491.91 L428.16,492.29 L428.28,493.11 L428.73,493.55 L430.67,493.64 L432.20,498.28 L432.15,498.74 L431.90,498.88 L429.06,497.80 L429.10,497.33 L429.43,497.27 L429.60,497.01 L428.89,495.57 L425.26,495.44 L424.74,495.64 L424.54,495.89 L424.58,498.08 L422.87,499.83 L422.53,499.91 L422.21,500.18 L421.70,501.51 L421.73,502.01 L422.69,503.93 L423.24,504.40 L423.56,504.41 L424.04,504.43 Z M391.12,494.97 L391.83,492.82 L392.43,492.21 L394.19,493.25 L395.96,489.70 L394.48,488.88 L392.97,488.80 L388.64,487.63 L386.67,485.15 L386.69,484.84 L387.75,484.03 L390.86,484.04 L391.53,484.43 L391.97,484.43 L392.59,483.97 L390.97,479.06 L388.89,477.28 L388.51,477.54 L387.00,480.49 L387.18,482.57 L387.36,482.71 L386.89,483.55 L384.09,485.19 L383.87,485.14 L383.93,484.59 L382.85,481.89 L382.88,481.78 L383.33,481.73 L383.63,481.41 L383.69,480.77 L383.52,480.31 L381.21,479.71 L378.54,479.67 L376.71,480.23 L376.28,480.58 L376.95,485.21 L369.35,486.15 L367.37,484.75 L366.49,483.52 L366.73,482.87 L367.53,482.43 L368.10,482.68 L368.56,482.61 L368.57,482.41 L364.44,481.84 L361.98,481.89 L360.79,480.86 L360.13,480.06 L359.41,478.57 L360.03,473.28 L359.71,469.79 L359.96,466.23 L360.61,464.51 L361.85,463.40 L361.37,462.84 L359.73,464.31 L358.67,465.83 L358.66,466.44 L358.97,466.70 L358.68,468.63 L358.07,469.38 L357.50,469.32 L356.62,468.72 L357.86,468.06 L358.03,467.81 L357.15,466.73 L354.60,467.13 L354.42,467.28 L353.84,468.67 L353.88,468.95 L354.46,468.93 L354.92,468.64 L355.92,469.13 L356.94,470.09 L357.94,471.63 L358.09,472.29 L357.05,474.47 L354.88,475.77 L354.37,475.91 L353.18,475.61 L352.74,474.89 L352.94,474.10 L352.55,474.20 L352.36,475.39 L350.66,474.95 L349.06,473.90 L347.52,474.19 L345.58,478.34 L343.98,479.23 L343.24,479.45 L342.37,479.64 L340.50,479.56 L335.90,481.07 L336.18,482.40 L335.47,482.58 L333.67,479.91 L332.87,478.38 L331.44,477.11 L333.57,474.25 L334.22,471.61 L334.06,470.43 L332.56,467.82 L331.31,466.12 L325.04,460.33 L324.79,459.77 L324.76,457.44 L324.15,456.18 L322.82,454.66 L321.17,453.27 L320.03,453.04 L317.60,450.29 L316.93,449.25 L316.82,446.93 L317.20,446.55 L317.24,445.05 L317.03,443.71 L316.22,440.98 L316.02,440.38 L314.63,439.64 L312.76,436.28 L312.63,435.20 L312.77,434.57 L313.60,434.54 L315.55,433.39 L317.17,431.47 L317.44,430.43 L317.16,429.80 L316.68,429.46 L316.31,428.73 L316.10,427.48 L317.84,424.71 L319.11,423.07 L321.21,421.43 L322.59,417.54 L322.46,417.28 L322.07,417.13 L319.65,417.12 L318.78,415.85 L318.68,415.40 L319.03,413.33 L320.29,412.52 L320.17,411.05 L317.67,407.67 L313.56,403.98 L316.35,397.32 L317.09,392.50 L317.27,392.00 L319.34,386.75 L320.03,385.43 L320.64,385.10 L322.69,377.07 L327.11,373.77 L329.02,369.49 L330.47,368.42 L334.00,366.87 L338.80,365.08 L340.47,362.61 L340.38,362.20 L341.56,360.13 L343.36,359.71 L343.85,359.75 L343.56,360.55 L343.93,361.81 L344.72,362.58 L347.27,361.99 L348.44,363.58 L348.75,365.35 L354.16,366.87 L355.23,368.73 L356.67,369.71 L362.34,368.38 L362.60,368.17 L367.64,370.17 L368.02,370.48 L368.17,370.84 L367.91,371.80 L367.91,372.83 L368.80,374.63 L369.51,375.21 L370.67,375.22 L374.79,379.22 L375.64,381.55 L376.10,383.27 L376.42,387.65 L373.69,388.99 L372.55,388.90 L372.26,389.04 L371.88,389.90 L371.83,391.06 L372.05,391.43 L377.38,393.02 L379.00,393.17 L385.87,391.06 L386.73,391.11 L391.12,392.20 L391.52,392.54 L392.02,393.32 L393.45,396.61 L393.42,396.79 L394.00,397.09 L394.54,397.14 L397.91,395.43 L400.12,394.08 L404.62,393.49 L407.28,391.70 L407.25,388.64 L408.24,387.93 L409.43,387.47 L409.13,388.66 L410.19,394.78 L413.92,398.60 L415.13,399.43 L416.95,400.20 L417.28,400.18 L420.40,399.59 L421.47,398.46 L422.29,397.93 L425.58,398.24 L428.28,400.26 L432.79,401.58 L435.80,401.54 L440.88,398.23 L445.81,393.74 L448.39,392.34 L448.61,392.26 L451.27,392.92 L452.30,393.51 L453.35,394.69 L453.37,395.09 L455.54,396.13 L455.96,396.08 L457.00,395.33 L457.56,394.67 L459.26,395.22 L459.63,395.48 L459.65,398.24 L459.30,399.12 L456.78,401.31 L456.33,403.23 L456.91,406.14 L458.57,406.73 L462.94,407.83 L466.74,409.70 L470.96,414.86 L472.19,416.17 L474.48,417.73 L475.81,417.77 L477.19,417.21 L479.91,420.29 L479.99,420.85 L478.22,423.27 L478.02,425.92 L477.52,426.49 L475.95,427.79 L471.51,427.91 L469.34,432.95 L465.48,435.56 L463.30,436.02 L459.14,439.07 L457.88,442.23 L457.43,442.74 L456.40,443.29 L455.33,443.61 L449.53,444.99 L448.60,444.92 L446.41,445.35 L445.70,445.91 L444.83,446.97 L444.59,451.18 L443.80,451.14 L437.15,452.43 L437.14,453.00 L438.53,454.83 L439.33,455.62 L441.30,456.23 L441.63,456.67 L442.18,458.01 L442.21,458.50 L442.05,458.91 L441.36,459.43 L439.91,460.09 L440.76,460.91 L439.02,462.48 L436.28,462.50 L433.03,463.21 L427.65,457.76 L427.15,455.05 L426.58,453.89 L425.43,454.04 L424.54,454.58 L424.87,455.80 L425.27,456.59 L425.20,456.80 L424.11,457.57 L421.95,454.19 L419.86,454.04 L418.01,455.16 L416.50,450.67 L416.13,447.59 L418.10,446.00 L415.96,446.19 L413.61,449.20 L413.62,449.47 L414.23,450.65 L414.90,450.70 L415.19,450.92 L416.34,452.75 L417.04,454.69 L416.09,456.09 L421.05,463.54 L421.00,463.79 L417.49,465.33 L414.72,465.73 L413.42,463.84 L413.84,462.20 L411.31,457.76 L410.96,457.44 L410.77,457.58 L410.21,459.14 L408.96,460.29 L404.13,460.31 L403.67,461.92 L400.89,464.27 L398.45,465.49 L393.54,466.73 L393.54,470.24 L393.69,470.53 L394.25,470.73 L395.59,470.38 L395.81,469.90 L395.88,468.62 L400.99,466.62 L401.66,465.82 L401.29,465.03 L401.57,464.22 L402.18,463.72 L403.98,463.12 L405.28,464.32 L407.27,469.92 L407.40,470.60 L406.53,471.78 L403.85,474.02 L401.00,473.28 L398.53,472.98 L397.77,473.33 L397.66,474.32 L398.01,474.64 L398.14,474.44 L398.85,474.23 L400.54,474.42 L401.27,474.80 L401.51,475.34 L401.54,476.48 L400.27,477.92 L400.04,477.93 L398.93,483.76 L399.35,488.39 L399.56,488.50 L400.49,487.84 L401.67,484.99 L401.33,483.71 L401.03,483.52 L401.25,483.34 L402.50,483.15 L404.46,485.97 L403.98,487.89 L401.38,493.96 L401.58,496.94 L401.36,498.11 L400.82,500.06 L399.75,502.00 L397.95,502.16 L397.01,501.44 L396.80,500.82 L396.82,499.88 L395.06,495.59 L392.28,494.41 L391.63,494.37 L391.12,494.97 L391.12,494.97 Z"/>
<path class="wa-map__sido wa-map__sido--selected" style="fill:#6f7473;fill-opacity:0.12;stroke:#6f7473" fill-rule="evenodd" clip-rule="evenodd" d="M176.10,707.08 L175.81,707.15 L175.56,706.78 L175.64,706.03 L175.94,705.59 L176.18,706.00 L176.14,707.06 L176.10,707.08 Z M249.02,660.83 L247.30,660.35 L246.93,659.94 L246.64,658.94 L246.60,658.65 L247.36,656.61 L248.03,656.25 L248.60,656.96 L249.72,659.17 L249.76,659.66 L249.32,660.64 L249.02,660.83 L249.02,660.83 Z M234.93,654.03 L238.74,655.84 L239.38,655.61 L240.43,655.74 L241.60,656.10 L242.79,657.02 L243.68,658.57 L243.73,659.06 L242.84,660.87 L243.63,662.83 L244.73,664.99 L244.49,667.53 L243.02,672.12 L241.85,673.36 L239.00,677.17 L236.61,681.80 L235.49,683.18 L234.89,683.47 L232.47,684.02 L230.89,683.92 L225.71,687.00 L220.39,687.93 L218.99,688.01 L209.88,691.44 L209.31,691.11 L208.47,690.95 L202.52,691.38 L201.98,691.85 L198.24,693.34 L197.46,693.29 L194.85,691.52 L191.24,690.81 L190.75,690.82 L187.04,692.62 L186.38,692.71 L182.64,691.17 L182.33,691.19 L181.34,691.57 L179.20,693.40 L178.70,694.73 L178.65,695.88 L175.39,696.01 L174.79,694.87 L173.17,693.19 L170.45,690.83 L169.25,690.44 L168.39,689.77 L167.15,688.65 L165.79,686.73 L164.96,684.76 L165.10,679.37 L165.98,678.15 L166.45,678.25 L167.03,677.88 L167.37,676.36 L171.78,672.54 L174.46,671.16 L175.74,669.27 L175.96,668.35 L182.37,662.25 L189.40,660.75 L191.10,660.59 L200.75,656.95 L202.00,657.18 L203.99,656.99 L204.16,656.84 L203.97,656.51 L204.14,656.70 L206.43,656.55 L209.98,655.58 L214.78,653.62 L227.60,652.24 L227.99,652.04 L228.07,651.56 L229.81,651.32 L232.88,652.22 L234.93,654.03 Z"/>
<text class="wa-map__label wa-map__label--sido" x="247.7" y="143.1">서울</text>
<text class="wa-map__label wa-map__label--sido" x="461.6" y="453.9">부산</text>
<text class="wa-map__label wa-map__label--sido" x="409.8" y="361.0">대구</text>
<text class="wa-map__label wa-map__label--sido" x="137.1" y="157.9">인천</text>
<text class="wa-map__label wa-map__label--sido" x="218.4" y="465.2">광주</text>
<text class="wa-map__label wa-map__label--sido" x="317.2" y="316.7">대전</text>
<text class="wa-map__label wa-map__label--sido" x="492.7" y="401.1">울산</text>
<text class="wa-map__label wa-map__label--sido" x="281.4" y="278.2">세종</text>
<text class="wa-map__label wa-map__label--do" x="295.4" y="137.9">경기</text>
<text class="wa-map__label wa-map__label--do" x="202.1" y="701.8">제주</text>
<text class="wa-map__label wa-map__label--do" x="366.3" y="130.1">강원</text>
<text class="wa-map__label wa-map__label--do" x="369.5" y="225.3">충북</text>
<text class="wa-map__label wa-map__label--do" x="225.2" y="278.2">충남</text>
<text class="wa-map__label wa-map__label--do" x="221.1" y="359.5">전북</text>
<text class="wa-map__label wa-map__label--do" x="227.0" y="493.8">전남</text>
<text class="wa-map__label wa-map__label--do" x="439.7" y="313.5">경북</text>
<text class="wa-map__label wa-map__label--do" x="369.4" y="456.7">경남</text>
<text class="wa-map__label wa-map__label--sigungu" x="271.8" y="199.7">수원</text>
<text class="wa-map__label wa-map__label--sigungu" x="205.1" y="131.9">고양</text>
<text class="wa-map__label wa-map__label--sigungu" x="316.3" y="211.6">용인</text>
<text class="wa-map__label wa-map__label--sigungu" x="440.7" y="469.7">창원</text>
<text class="wa-map__label wa-map__label--sigungu" x="335.8" y="258.1">청주</text>
<text class="wa-map__label wa-map__label--sigungu" x="238.5" y="385.7">전주</text>
<text class="wa-map__label wa-map__label--sigungu" x="236.6" y="226.9">화성</text>
</svg>
