<svg xmlns="http://www.w3.org/2000/svg" width="1200" height="630" viewBox="0 0 1200 630" role="img" aria-labelledby="title desc">
  <title id="title">그림 1. C장조 숫자 지판</title>
  <desc id="desc">표준 조율 기타의 0프렛부터 12프렛까지 C장조 자연음 위치를 숫자와 음 이름으로 표시한 지판</desc>
  <defs>
    <style>
      text{font-family:'Apple SD Gothic Neo','Noto Sans KR',system-ui,-apple-system,BlinkMacSystemFont,'Segoe UI',sans-serif}.title{fill:#f0f4f5;font-size:36px;font-weight:850}.sub{fill:#b9c5c9;font-size:18px;font-weight:650}.fret{fill:#b9c5c9;font-size:15px;font-weight:750;text-anchor:middle}.string-label{fill:#b9c5c9;font-size:16px;font-weight:700;text-anchor:end}.grid{stroke:#71838a;stroke-width:2}.nut{stroke:#f0f4f5;stroke-width:5}.node{fill:#222d35;stroke:#71838a;stroke-width:3}.node-one{fill:#222d35;stroke:#75b9f0;stroke-width:4}.node-four{fill:#222d35;stroke:#86c89d;stroke-width:4}.node-five{fill:#222d35;stroke:#f28d85;stroke-width:4}.degree{fill:#e0e7e9;font-size:21px;font-weight:850;text-anchor:middle}.degree-one{fill:#75b9f0;font-size:21px;font-weight:850;text-anchor:middle}.degree-four{fill:#86c89d;font-size:21px;font-weight:850;text-anchor:middle}.degree-five{fill:#f28d85;font-size:21px;font-weight:850;text-anchor:middle}.note{fill:#b9c5c9;font-size:11px;font-weight:750;text-anchor:middle}.marker{fill:#b9c5c9}
    </style>
  </defs>
  <rect width="1200" height="630" fill="#192128"/>
  <rect x="34" y="28" width="1132" height="574" rx="25" fill="#192128" stroke="#71838a" stroke-width="3"/>
  <text x="68" y="78" class="title">그림 1. C장조 숫자 지판</text>
  <text x="68" y="108" class="sub">표준 튜닝 · 0–12프렛 · 숫자는 C장조 안에서의 자리</text>

  <g aria-hidden="true">
    <path class="grid" d="M192 218H1102M192 276H1102M192 334H1102M192 392H1102M192 450H1102M192 508H1102"/>
    <path class="grid" d="M192 160V537M262 160V537M332 160V537M402 160V537M472 160V537M542 160V537M612 160V537M682 160V537M752 160V537M822 160V537M892 160V537M962 160V537M1032 160V537M1102 160V537"/>
    <path class="nut" d="M262 189V537"/>
  </g>
  <g class="fret"><text x="227" y="179">0</text><text x="297" y="179">1</text><text x="367" y="179">2</text><text x="437" y="179">3</text><text x="507" y="179">4</text><text x="577" y="179">5</text><text x="647" y="179">6</text><text x="717" y="179">7</text><text x="787" y="179">8</text><text x="857" y="179">9</text><text x="927" y="179">10</text><text x="997" y="179">11</text><text x="1067" y="179">12</text></g>
  <g class="string-label"><text x="176" y="224">1번 줄 · E</text><text x="176" y="282">2번 줄 · B</text><text x="176" y="340">3번 줄 · G</text><text x="176" y="398">4번 줄 · D</text><text x="176" y="456">5번 줄 · A</text><text x="176" y="514">6번 줄 · E</text></g>

  <g transform="translate(227 218)"><rect class="node" x="-22" y="-23" width="44" height="46" rx="10"/><text class="degree" y="1">3</text><text class="note" y="16">E</text></g><g transform="translate(297 218)"><rect class="node-four" x="-22" y="-23" width="44" height="46" rx="10"/><text class="degree-four" y="1">4</text><text class="note" y="16">F</text></g><g transform="translate(437 218)"><rect class="node-five" x="-22" y="-23" width="44" height="46" rx="10"/><text class="degree-five" y="1">5</text><text class="note" y="16">G</text></g><g transform="translate(577 218)"><rect class="node" x="-22" y="-23" width="44" height="46" rx="10"/><text class="degree" y="1">6</text><text class="note" y="16">A</text></g><g transform="translate(717 218)"><rect class="node" x="-22" y="-23" width="44" height="46" rx="10"/><text class="degree" y="1">7</text><text class="note" y="16">B</text></g><g transform="translate(787 218)"><rect class="node-one" x="-22" y="-23" width="44" height="46" rx="10"/><text class="degree-one" y="1">1</text><text class="note" y="16">C</text></g><g transform="translate(927 218)"><rect class="node" x="-22" y="-23" width="44" height="46" rx="10"/><text class="degree" y="1">2</text><text class="note" y="16">D</text></g><g transform="translate(1067 218)"><rect class="node" x="-22" y="-23" width="44" height="46" rx="10"/><text class="degree" y="1">3</text><text class="note" y="16">E</text></g>

  <g transform="translate(227 276)"><rect class="node" x="-22" y="-23" width="44" height="46" rx="10"/><text class="degree" y="1">7</text><text class="note" y="16">B</text></g><g transform="translate(297 276)"><rect class="node-one" x="-22" y="-23" width="44" height="46" rx="10"/><text class="degree-one" y="1">1</text><text class="note" y="16">C</text></g><g transform="translate(437 276)"><rect class="node" x="-22" y="-23" width="44" height="46" rx="10"/><text class="degree" y="1">2</text><text class="note" y="16">D</text></g><g transform="translate(577 276)"><rect class="node" x="-22" y="-23" width="44" height="46" rx="10"/><text class="degree" y="1">3</text><text class="note" y="16">E</text></g><g transform="translate(647 276)"><rect class="node-four" x="-22" y="-23" width="44" height="46" rx="10"/><text class="degree-four" y="1">4</text><text class="note" y="16">F</text></g><g transform="translate(787 276)"><rect class="node-five" x="-22" y="-23" width="44" height="46" rx="10"/><text class="degree-five" y="1">5</text><text class="note" y="16">G</text></g><g transform="translate(927 276)"><rect class="node" x="-22" y="-23" width="44" height="46" rx="10"/><text class="degree" y="1">6</text><text class="note" y="16">A</text></g><g transform="translate(1067 276)"><rect class="node" x="-22" y="-23" width="44" height="46" rx="10"/><text class="degree" y="1">7</text><text class="note" y="16">B</text></g>

  <g transform="translate(227 334)"><rect class="node-five" x="-22" y="-23" width="44" height="46" rx="10"/><text class="degree-five" y="1">5</text><text class="note" y="16">G</text></g><g transform="translate(367 334)"><rect class="node" x="-22" y="-23" width="44" height="46" rx="10"/><text class="degree" y="1">6</text><text class="note" y="16">A</text></g><g transform="translate(507 334)"><rect class="node" x="-22" y="-23" width="44" height="46" rx="10"/><text class="degree" y="1">7</text><text class="note" y="16">B</text></g><g transform="translate(577 334)"><rect class="node-one" x="-22" y="-23" width="44" height="46" rx="10"/><text class="degree-one" y="1">1</text><text class="note" y="16">C</text></g><g transform="translate(717 334)"><rect class="node" x="-22" y="-23" width="44" height="46" rx="10"/><text class="degree" y="1">2</text><text class="note" y="16">D</text></g><g transform="translate(857 334)"><rect class="node" x="-22" y="-23" width="44" height="46" rx="10"/><text class="degree" y="1">3</text><text class="note" y="16">E</text></g><g transform="translate(927 334)"><rect class="node-four" x="-22" y="-23" width="44" height="46" rx="10"/><text class="degree-four" y="1">4</text><text class="note" y="16">F</text></g><g transform="translate(1067 334)"><rect class="node-five" x="-22" y="-23" width="44" height="46" rx="10"/><text class="degree-five" y="1">5</text><text class="note" y="16">G</text></g>

  <g transform="translate(227 392)"><rect class="node" x="-22" y="-23" width="44" height="46" rx="10"/><text class="degree" y="1">2</text><text class="note" y="16">D</text></g><g transform="translate(367 392)"><rect class="node" x="-22" y="-23" width="44" height="46" rx="10"/><text class="degree" y="1">3</text><text class="note" y="16">E</text></g><g transform="translate(437 392)"><rect class="node-four" x="-22" y="-23" width="44" height="46" rx="10"/><text class="degree-four" y="1">4</text><text class="note" y="16">F</text></g><g transform="translate(577 392)"><rect class="node-five" x="-22" y="-23" width="44" height="46" rx="10"/><text class="degree-five" y="1">5</text><text class="note" y="16">G</text></g><g transform="translate(717 392)"><rect class="node" x="-22" y="-23" width="44" height="46" rx="10"/><text class="degree" y="1">6</text><text class="note" y="16">A</text></g><g transform="translate(857 392)"><rect class="node" x="-22" y="-23" width="44" height="46" rx="10"/><text class="degree" y="1">7</text><text class="note" y="16">B</text></g><g transform="translate(927 392)"><rect class="node-one" x="-22" y="-23" width="44" height="46" rx="10"/><text class="degree-one" y="1">1</text><text class="note" y="16">C</text></g><g transform="translate(1067 392)"><rect class="node" x="-22" y="-23" width="44" height="46" rx="10"/><text class="degree" y="1">2</text><text class="note" y="16">D</text></g>

  <g transform="translate(227 450)"><rect class="node" x="-22" y="-23" width="44" height="46" rx="10"/><text class="degree" y="1">6</text><text class="note" y="16">A</text></g><g transform="translate(367 450)"><rect class="node" x="-22" y="-23" width="44" height="46" rx="10"/><text class="degree" y="1">7</text><text class="note" y="16">B</text></g><g transform="translate(437 450)"><rect class="node-one" x="-22" y="-23" width="44" height="46" rx="10"/><text class="degree-one" y="1">1</text><text class="note" y="16">C</text></g><g transform="translate(577 450)"><rect class="node" x="-22" y="-23" width="44" height="46" rx="10"/><text class="degree" y="1">2</text><text class="note" y="16">D</text></g><g transform="translate(717 450)"><rect class="node" x="-22" y="-23" width="44" height="46" rx="10"/><text class="degree" y="1">3</text><text class="note" y="16">E</text></g><g transform="translate(787 450)"><rect class="node-four" x="-22" y="-23" width="44" height="46" rx="10"/><text class="degree-four" y="1">4</text><text class="note" y="16">F</text></g><g transform="translate(927 450)"><rect class="node-five" x="-22" y="-23" width="44" height="46" rx="10"/><text class="degree-five" y="1">5</text><text class="note" y="16">G</text></g><g transform="translate(1067 450)"><rect class="node" x="-22" y="-23" width="44" height="46" rx="10"/><text class="degree" y="1">6</text><text class="note" y="16">A</text></g>

  <g transform="translate(227 508)"><rect class="node" x="-22" y="-23" width="44" height="46" rx="10"/><text class="degree" y="1">3</text><text class="note" y="16">E</text></g><g transform="translate(297 508)"><rect class="node-four" x="-22" y="-23" width="44" height="46" rx="10"/><text class="degree-four" y="1">4</text><text class="note" y="16">F</text></g><g transform="translate(437 508)"><rect class="node-five" x="-22" y="-23" width="44" height="46" rx="10"/><text class="degree-five" y="1">5</text><text class="note" y="16">G</text></g><g transform="translate(577 508)"><rect class="node" x="-22" y="-23" width="44" height="46" rx="10"/><text class="degree" y="1">6</text><text class="note" y="16">A</text></g><g transform="translate(717 508)"><rect class="node" x="-22" y="-23" width="44" height="46" rx="10"/><text class="degree" y="1">7</text><text class="note" y="16">B</text></g><g transform="translate(787 508)"><rect class="node-one" x="-22" y="-23" width="44" height="46" rx="10"/><text class="degree-one" y="1">1</text><text class="note" y="16">C</text></g><g transform="translate(927 508)"><rect class="node" x="-22" y="-23" width="44" height="46" rx="10"/><text class="degree" y="1">2</text><text class="note" y="16">D</text></g><g transform="translate(1067 508)"><rect class="node" x="-22" y="-23" width="44" height="46" rx="10"/><text class="degree" y="1">3</text><text class="note" y="16">E</text></g>

  <g class="marker"><circle cx="437" cy="565" r="5"/><circle cx="577" cy="565" r="5"/><circle cx="717" cy="565" r="5"/><circle cx="857" cy="565" r="5"/><circle cx="1057" cy="565" r="5"/><circle cx="1077" cy="565" r="5"/></g>
</svg>
