<svg xmlns="http://www.w3.org/2000/svg" width="1200" height="630" viewBox="0 0 1200 630" role="img" aria-labelledby="title desc">
  <title id="title">그림 1. C장조 숫자 지판</title>
  <desc id="desc">표준 조율 기타의 0프렛부터 5프렛까지 C장조 자연음 위치를 숫자와 음 이름으로 크게 표시한 지판</desc>
  <defs><style>text{font-family:'Apple SD Gothic Neo','Noto Sans KR',system-ui,-apple-system,BlinkMacSystemFont,'Segoe UI',sans-serif}.title{fill:#f0f4f5;font-size:38px;font-weight:850}.sub{fill:#b9c5c9;font-size:19px;font-weight:650}.fret{fill:#b9c5c9;font-size:18px;font-weight:750;text-anchor:middle}.string-label{fill:#b9c5c9;font-size:17px;font-weight:700;text-anchor:end}.grid{stroke:#71838a;stroke-width:3}.nut{stroke:#f0f4f5;stroke-width:6}.node{fill:#222d35;stroke:#71838a;stroke-width:4}.node-one{fill:#222d35;stroke:#75b9f0;stroke-width:5}.node-four{fill:#222d35;stroke:#86c89d;stroke-width:5}.node-five{fill:#222d35;stroke:#f28d85;stroke-width:5}.degree{fill:#e0e7e9;font-size:29px;font-weight:850;text-anchor:middle}.degree-one{fill:#75b9f0;font-size:29px;font-weight:850;text-anchor:middle}.degree-four{fill:#86c89d;font-size:29px;font-weight:850;text-anchor:middle}.degree-five{fill:#f28d85;font-size:29px;font-weight:850;text-anchor:middle}.note{fill:#b9c5c9;font-size:14px;font-weight:750;text-anchor:middle}</style></defs>
  <rect width="1200" height="630" fill="#192128"/>
  <rect x="30" y="24" width="1140" height="582" rx="26" fill="#192128" stroke="#71838a" stroke-width="3"/>
  <text x="68" y="80" class="title">그림 1. C장조 숫자 지판</text><text x="68" y="112" class="sub">표준 튜닝 · 카드에서는 0–5프렛을 확대해 본다</text>
  <g aria-hidden="true"><path class="grid" d="M205 202H1112M205 268H1112M205 334H1112M205 400H1112M205 466H1112M205 532H1112"/><path class="grid" d="M205 152V562M356 152V562M507 152V562M658 152V562M809 152V562M960 152V562M1112 152V562"/><path class="nut" d="M356 174V562"/></g>
  <g class="fret"><text x="280" y="174">0</text><text x="431" y="174">1</text><text x="582" y="174">2</text><text x="733" y="174">3</text><text x="884" y="174">4</text><text x="1036" y="174">5</text></g>
  <g class="string-label"><text x="187" y="208">1번 줄 · E</text><text x="187" y="274">2번 줄 · B</text><text x="187" y="340">3번 줄 · G</text><text x="187" y="406">4번 줄 · D</text><text x="187" y="472">5번 줄 · A</text><text x="187" y="538">6번 줄 · E</text></g>
  <g transform="translate(280 202)"><rect class="node" x="-36" y="-29" width="72" height="58" rx="13"/><text class="degree" y="2">3</text><text class="note" y="21">E</text></g><g transform="translate(431 202)"><rect class="node-four" x="-36" y="-29" width="72" height="58" rx="13"/><text class="degree-four" y="2">4</text><text class="note" y="21">F</text></g><g transform="translate(733 202)"><rect class="node-five" x="-36" y="-29" width="72" height="58" rx="13"/><text class="degree-five" y="2">5</text><text class="note" y="21">G</text></g><g transform="translate(1036 202)"><rect class="node" x="-36" y="-29" width="72" height="58" rx="13"/><text class="degree" y="2">6</text><text class="note" y="21">A</text></g>
  <g transform="translate(280 268)"><rect class="node" x="-36" y="-29" width="72" height="58" rx="13"/><text class="degree" y="2">7</text><text class="note" y="21">B</text></g><g transform="translate(431 268)"><rect class="node-one" x="-36" y="-29" width="72" height="58" rx="13"/><text class="degree-one" y="2">1</text><text class="note" y="21">C</text></g><g transform="translate(733 268)"><rect class="node" x="-36" y="-29" width="72" height="58" rx="13"/><text class="degree" y="2">2</text><text class="note" y="21">D</text></g><g transform="translate(1036 268)"><rect class="node" x="-36" y="-29" width="72" height="58" rx="13"/><text class="degree" y="2">3</text><text class="note" y="21">E</text></g>
  <g transform="translate(280 334)"><rect class="node-five" x="-36" y="-29" width="72" height="58" rx="13"/><text class="degree-five" y="2">5</text><text class="note" y="21">G</text></g><g transform="translate(582 334)"><rect class="node" x="-36" y="-29" width="72" height="58" rx="13"/><text class="degree" y="2">6</text><text class="note" y="21">A</text></g><g transform="translate(884 334)"><rect class="node" x="-36" y="-29" width="72" height="58" rx="13"/><text class="degree" y="2">7</text><text class="note" y="21">B</text></g><g transform="translate(1036 334)"><rect class="node-one" x="-36" y="-29" width="72" height="58" rx="13"/><text class="degree-one" y="2">1</text><text class="note" y="21">C</text></g>
  <g transform="translate(280 400)"><rect class="node" x="-36" y="-29" width="72" height="58" rx="13"/><text class="degree" y="2">2</text><text class="note" y="21">D</text></g><g transform="translate(582 400)"><rect class="node" x="-36" y="-29" width="72" height="58" rx="13"/><text class="degree" y="2">3</text><text class="note" y="21">E</text></g><g transform="translate(733 400)"><rect class="node-four" x="-36" y="-29" width="72" height="58" rx="13"/><text class="degree-four" y="2">4</text><text class="note" y="21">F</text></g><g transform="translate(1036 400)"><rect class="node-five" x="-36" y="-29" width="72" height="58" rx="13"/><text class="degree-five" y="2">5</text><text class="note" y="21">G</text></g>
  <g transform="translate(280 466)"><rect class="node" x="-36" y="-29" width="72" height="58" rx="13"/><text class="degree" y="2">6</text><text class="note" y="21">A</text></g><g transform="translate(582 466)"><rect class="node" x="-36" y="-29" width="72" height="58" rx="13"/><text class="degree" y="2">7</text><text class="note" y="21">B</text></g><g transform="translate(733 466)"><rect class="node-one" x="-36" y="-29" width="72" height="58" rx="13"/><text class="degree-one" y="2">1</text><text class="note" y="21">C</text></g><g transform="translate(1036 466)"><rect class="node" x="-36" y="-29" width="72" height="58" rx="13"/><text class="degree" y="2">2</text><text class="note" y="21">D</text></g>
  <g transform="translate(280 532)"><rect class="node" x="-36" y="-29" width="72" height="58" rx="13"/><text class="degree" y="2">3</text><text class="note" y="21">E</text></g><g transform="translate(431 532)"><rect class="node-four" x="-36" y="-29" width="72" height="58" rx="13"/><text class="degree-four" y="2">4</text><text class="note" y="21">F</text></g><g transform="translate(733 532)"><rect class="node-five" x="-36" y="-29" width="72" height="58" rx="13"/><text class="degree-five" y="2">5</text><text class="note" y="21">G</text></g><g transform="translate(1036 532)"><rect class="node" x="-36" y="-29" width="72" height="58" rx="13"/><text class="degree" y="2">6</text><text class="note" y="21">A</text></g>
</svg>
